<svg xmlns="http://www.w3.org/2000/svg" xmlns:xlink="http://www.w3.org/1999/xlink" viewBox="0 0 755.449 105.28">
  <defs>
    <linearGradient id="linear-gradient" x1="5313.119" y1="6091.917" x2="5313.119" y2="6102.433" gradientTransform="translate(-2387.211 -2996.598) scale(0.5)" gradientUnits="userSpaceOnUse">
      <stop offset="0" stop-color="#c69aeb"/>
      <stop offset="1" stop-color="#6f4bb2"/>
    </linearGradient>
    <linearGradient id="linear-gradient-2" x1="5308.751" y1="6113.126" x2="5308.751" y2="6123.617" xlink:href="#linear-gradient"/>
    <linearGradient id="linear-gradient-3" x1="114.613" y1="724.343" x2="156.186" y2="688.698" gradientTransform="matrix(1, 0, 0, -1, 0, 746.89)" gradientUnits="userSpaceOnUse">
      <stop offset="0" stop-color="#5ea0ef"/>
      <stop offset="0.102" stop-color="#4495e8"/>
      <stop offset="0.272" stop-color="#1f85dd"/>
      <stop offset="0.41" stop-color="#087cd6"/>
      <stop offset="0.497" stop-color="#0078d4"/>
    </linearGradient>
    <linearGradient id="linear-gradient-4" x1="112.595" y1="721.99" x2="154.168" y2="686.345" xlink:href="#linear-gradient-3"/>
    <linearGradient id="linear-gradient-5" x1="113.208" y1="722.703" x2="154.782" y2="687.06" xlink:href="#linear-gradient-3"/>
    <linearGradient id="linear-gradient-6" x1="114.613" y1="673.643" x2="156.186" y2="637.998" xlink:href="#linear-gradient-3"/>
    <linearGradient id="linear-gradient-7" x1="112.595" y1="671.29" x2="154.168" y2="635.645" xlink:href="#linear-gradient-3"/>
    <linearGradient id="linear-gradient-8" x1="113.208" y1="672.003" x2="154.782" y2="636.36" xlink:href="#linear-gradient-3"/>
    <radialGradient id="radial-gradient" cx="410.723" cy="666.393" r="13.824" gradientTransform="matrix(1.01, 0, 0, -1.14, 17.458, 829.632)" gradientUnits="userSpaceOnUse">
      <stop offset="0.2" stop-color="#ffd70f"/>
      <stop offset="0.44" stop-color="#ffcb12"/>
      <stop offset="0.87" stop-color="#feac19"/>
      <stop offset="1" stop-color="#fea11b"/>
    </radialGradient>
    <radialGradient id="radial-gradient-2" cx="463.14" cy="693.632" r="10.55" gradientTransform="matrix(1.04, 0, 0, -1.03, 126.692, 789.613)" gradientUnits="userSpaceOnUse">
      <stop offset="0.18" stop-color="#5ea0ef"/>
      <stop offset="1" stop-color="#0078d4"/>
    </radialGradient>
    <clipPath id="clip-path">
      <path d="M619.83,72.712a10.852,10.852,0,1,1-.011-.046Z" fill="none"/>
    </clipPath>
  </defs>
  <g id="Shapes">
    <rect width="755.449" height="105.28" fill="#fff"/>
    <g>
      <rect x="219.026" y="5.718" width="83.6" height="96.8" fill="#fff"/>
      <rect x="219.026" y="5.718" width="83.6" height="96.8" fill="#0078d4" opacity="0.12"/>
    </g>
    <g>
      <rect x="390.626" y="5.718" width="83.6" height="96.8" fill="#fff"/>
      <rect x="390.626" y="5.718" width="83.6" height="96.8" fill="#0078d4" opacity="0.12"/>
    </g>
    <g id="b30b0bd5-e4d2-456b-8d49-c2df20200912">
      <path id="b51878b5-8d50-4b8b-bc48-74f5f7315a99" d="M268.67,68.085V66.579H257.325L252,71.875h-3.915l9.086-9.187h6.2v-1.43h-6.827L245.955,71.875H244.45v1.506h4.542l5.372,5.3h12.8V77.171H254.916l-3.79-3.79h9.211V71.875h-6.174l3.765-3.79Z" fill="#32bedd"/>
      <circle id="ad0ed4eb-cd5f-4cc0-bd19-2830d27ec806" cx="261.843" cy="72.628" r="2.184" fill="#fff"/>
      <circle id="a2746b4a-0ae4-4308-876e-5b82657e1872" cx="264.127" cy="62.036" r="2.184" fill="#fff"/>
      <circle id="fc3316e0-7094-4ce0-99ed-43f1e6e4350c" cx="269.423" cy="67.332" r="2.184" fill="#fff"/>
      <circle id="b5d18443-d50e-4590-8e8f-80b6a7f6d348" cx="267.164" cy="77.924" r="2.184" fill="#fff"/>
      <circle cx="264.052" cy="62.036" r="2.635" fill="#50e6ff"/>
      <circle cx="269.348" cy="67.332" r="2.635" fill="url(#linear-gradient)"/>
      <circle cx="267.164" cy="77.924" r="2.635" fill="url(#linear-gradient-2)"/>
      <circle cx="261.843" cy="72.628" r="2.635" fill="#50e6ff"/>
      <g>
        <path d="M239.48,51.218h3.238v8.961a.727.727,0,0,1-.728.727h-3.213a.727.727,0,0,1-.728-.727h0v-7.53a1.431,1.431,0,0,1,1.431-1.431Z" fill="#999"/>
        <path d="M239.48,51.218h3.238v8.961a.727.727,0,0,1-.728.727h-3.213a.727.727,0,0,1-.728-.727h0v-7.53a1.431,1.431,0,0,1,1.431-1.431Z" fill="#999" opacity="0.5" style="isolation: isolate"/>
      </g>
      <g>
        <path d="M276.049,51.218h3.238a1.431,1.431,0,0,1,1.431,1.431v7.53a.727.727,0,0,1-.728.727h-3.238a.727.727,0,0,1-.7-.727V51.218Z" fill="#999"/>
        <path d="M276.049,51.218h3.238a1.431,1.431,0,0,1,1.431,1.431v7.53a.727.727,0,0,1-.728.727h-3.238a.727.727,0,0,1-.7-.727V51.218Z" fill="#999" opacity="0.5" style="isolation: isolate"/>
      </g>
      <path d="M280.718,52.649v3.137H238.049V52.649a1.431,1.431,0,0,1,1.431-1.431h39.832A1.431,1.431,0,0,1,280.718,52.649Z" fill="#949494"/>
      <g>
        <path d="M238.777,79.455h3.238a.728.728,0,0,1,.728.727v9.036H239.48a1.431,1.431,0,0,1-1.431-1.43v-7.53a.728.728,0,0,1,.649-.8A.523.523,0,0,1,238.777,79.455Z" fill="#999"/>
        <path d="M238.777,79.455h3.238a.728.728,0,0,1,.728.727v9.036H239.48a1.431,1.431,0,0,1-1.431-1.43v-7.53a.728.728,0,0,1,.649-.8A.523.523,0,0,1,238.777,79.455Z" fill="#999" opacity="0.5" style="isolation: isolate"/>
      </g>
      <g>
        <path d="M276.752,79.455h3.238a.728.728,0,0,1,.728.727h0v7.53a1.431,1.431,0,0,1-1.431,1.431h-3.238V80.258a.729.729,0,0,1,.649-.8A.489.489,0,0,1,276.752,79.455Z" fill="#999"/>
        <path d="M276.752,79.455h3.238a.728.728,0,0,1,.728.727h0v7.53a1.431,1.431,0,0,1-1.431,1.431h-3.238V80.258a.729.729,0,0,1,.649-.8A.489.489,0,0,1,276.752,79.455Z" fill="#999" opacity="0.5" style="isolation: isolate"/>
      </g>
      <path d="M238.049,87.788V84.65h42.669v3.138a1.431,1.431,0,0,1-1.431,1.43H239.48A1.431,1.431,0,0,1,238.049,87.788Z" fill="#949494"/>
    </g>
    <g id="a0340009-183f-4be1-a295-1b3b83909025">
      <g>
        <polygon points="122.782 19.006 126.902 16.633 114.723 9.618 102.483 16.683 102.483 30.816 114.675 37.856 114.658 33.145 118.765 30.778 118.748 26.048 122.798 23.716 122.782 19.006" fill="#9cebff"/>
        <g>
          <polygon points="118.748 26.048 122.798 23.716 122.782 19.006 114.658 23.971 114.668 33.138 118.765 30.778 118.748 26.048" fill="url(#linear-gradient-3)"/>
          <polygon points="125.583 30.158 125.583 25.413 121.457 27.79 121.473 32.505 117.355 34.876 117.372 39.618 121.482 37.245 121.482 32.526 125.583 30.158" fill="url(#linear-gradient-4)"/>
          <polygon points="123.843 33.898 123.86 38.64 127.97 36.268 127.97 31.521 123.843 33.898" fill="url(#linear-gradient-5)"/>
        </g>
        <polygon points="114.657 23.966 114.657 37.855 102.488 30.836 102.488 16.85 114.657 23.966" fill="#5ea0ef"/>
      </g>
    </g>
    <g>
      <line x1="213.644" y1="24.118" x2="197.026" y2="24.118" fill="none" stroke="#3c3c41" stroke-miterlimit="10"/>
      <polygon points="212.549 20.378 219.026 24.118 212.549 27.858 212.549 20.378" fill="#3c3c41"/>
    </g>
    <line x1="148.626" y1="24.118" x2="131.026" y2="24.118" fill="none" stroke="#3c3c41" stroke-miterlimit="10"/>
    <g>
      <line x1="384.988" y1="54.118" x2="302.626" y2="54.118" fill="none" stroke="#3c3c41" stroke-miterlimit="10"/>
      <polygon points="383.894 50.378 390.37 54.118 383.894 57.858 383.894 50.378" fill="#3c3c41"/>
    </g>
    <g id="a0340009-183f-4be1-a295-1b3b83909025-2" data-name="a0340009-183f-4be1-a295-1b3b83909025">
      <g>
        <polygon points="122.782 69.706 126.902 67.333 114.723 60.318 102.483 67.383 102.483 81.516 114.675 88.556 114.658 83.845 118.765 81.478 118.748 76.748 122.798 74.416 122.782 69.706" fill="#9cebff"/>
        <g>
          <polygon points="118.748 76.748 122.798 74.416 122.782 69.706 114.658 74.671 114.668 83.838 118.765 81.478 118.748 76.748" fill="url(#linear-gradient-6)"/>
          <polygon points="125.583 80.858 125.583 76.113 121.457 78.49 121.473 83.205 117.355 85.576 117.372 90.318 121.482 87.945 121.482 83.226 125.583 80.858" fill="url(#linear-gradient-7)"/>
          <polygon points="123.843 84.598 123.86 89.34 127.97 86.968 127.97 82.221 123.843 84.598" fill="url(#linear-gradient-8)"/>
        </g>
        <polygon points="114.657 74.666 114.657 88.555 102.488 81.536 102.488 67.55 114.657 74.666" fill="#5ea0ef"/>
      </g>
    </g>
    <g>
      <line x1="213.644" y1="75.318" x2="197.026" y2="75.318" fill="none" stroke="#3c3c41" stroke-miterlimit="10"/>
      <polygon points="212.549 71.578 219.026 75.318 212.549 79.058 212.549 71.578" fill="#3c3c41"/>
    </g>
    <line x1="148.626" y1="75.318" x2="131.026" y2="75.318" fill="none" stroke="#3c3c41" stroke-miterlimit="10"/>
    <g>
      <line x1="583.244" y1="24.118" x2="566.626" y2="24.118" fill="none" stroke="#3c3c41" stroke-miterlimit="10"/>
      <polygon points="582.149 20.378 588.626 24.118 582.149 27.858 582.149 20.378" fill="#3c3c41"/>
    </g>
    <line x1="491.826" y1="24.118" x2="474.482" y2="24.118" fill="none" stroke="#3c3c41" stroke-miterlimit="10"/>
    <g>
      <line x1="583.244" y1="75.318" x2="566.626" y2="75.318" fill="none" stroke="#3c3c41" stroke-miterlimit="10"/>
      <polygon points="582.149 71.578 588.626 75.318 582.149 79.058 582.149 71.578" fill="#3c3c41"/>
    </g>
    <line x1="491.826" y1="75.318" x2="474.482" y2="75.318" fill="none" stroke="#3c3c41" stroke-miterlimit="10"/>
    <g>
      <path d="M430.86,72.453h-7.091a.425.425,0,0,1-.488-.351.441.441,0,0,1,0-.1.416.416,0,0,1,0-.179l8.634-21.34a.4.4,0,0,1,.313-.269h8.389a.426.426,0,0,1,.4.446v0a.578.578,0,0,1,0,.268L430.994,67.621h9.753a.448.448,0,0,1,.425.358.529.529,0,0,1-.112.313L424.865,89.745c-.157.111-1.253,1.252-.716-.47h0Z" fill="url(#radial-gradient)"/>
      <g>
        <path d="M424.5,79.418l-1.311,1.314a.6.6,0,0,1-.854,0l-9.741-9.715a1.184,1.184,0,0,1,0-1.676l1.326-1.331h0L424.5,78.564A.6.6,0,0,1,424.5,79.418Z" fill="#50e6ff"/>
        <path d="M422.965,59.7l1.315,1.311a.6.6,0,0,1,0,.854L413.888,72.284h0l-1.315-1.311a1.184,1.184,0,0,1,0-1.676l9.572-9.6a.6.6,0,0,1,.854,0Z" fill="#1490df"/>
      </g>
      <g>
        <path d="M450.546,67.987l1.311,1.314a1.186,1.186,0,0,1,.029,1.677l-.016.016-9.741,9.714a.6.6,0,0,1-.854,0h0l-1.311-1.315a.6.6,0,0,1,0-.854h0l10.581-10.551Z" fill="#50e6ff"/>
        <path d="M451.862,70.977l-1.315,1.311h0L440.154,61.866a.6.6,0,0,1,0-.854h0l1.314-1.311a.6.6,0,0,1,.855,0h0l9.556,9.583a1.186,1.186,0,0,1,0,1.677Z" fill="#1490df"/>
      </g>
    </g>
    <g>
      <path d="M617.275,38.618H601.109l-8.083-14,8.083-14h16.166l8.083,14Z" fill="#fff"/>
      <g>
        <polygon points="617.666 22.796 611.03 22.796 614.34 25.375 617.666 22.796" fill="#0078d7"/>
        <path d="M604.256,26.317a.388.388,0,0,1-.246-.093l-3.1-2.444v3.971h7.017V23.7L604.6,26.224A.658.658,0,0,1,604.256,26.317Z" fill="#0078d7"/>
        <path d="M614.323,26.317a.482.482,0,0,1-.28-.093l-3.165-2.444v3.971H617.9V23.7l-3.275,2.529A.54.54,0,0,1,614.323,26.317Z" fill="#0078d7"/>
        <path d="M616.811,11.422H601.573l-7.618,13.2,7.618,13.2h15.238l7.618-13.2Zm2.645,18.8H598.641a1.175,1.175,0,0,1-1.146-1.2V21.085a1.158,1.158,0,0,1,1.146-1.171h20.815c.263,0,.67,0,3.4,5.142l.11.2-.11.195C620.109,30.224,619.7,30.224,619.456,30.224Z" fill="#0078d7"/>
        <polygon points="607.565 22.796 600.93 22.796 604.239 25.375 607.565 22.796" fill="#0078d7"/>
        <path d="M598.641,20.737a.334.334,0,0,0-.323.348v7.942a.363.363,0,0,0,.323.374h20.7a32.446,32.446,0,0,0,2.682-4.158,38.341,38.341,0,0,0-2.69-4.506Zm10.112,7.388a.524.524,0,0,1-.526.449h-7.849c-.246,0-.288-.2-.288-.449V22.278c0-.246.042-.3.288-.3h7.849c.246,0,.526.059.526.3Zm9.965,0a.406.406,0,0,1-.4.449h-7.84a.432.432,0,0,1-.425-.449V22.278c0-.246.179-.3.425-.3h7.84c.255,0,.4.059.4.3Z" fill="#0078d7"/>
      </g>
    </g>
    <g>
      <path d="M598.553,68.705a.32.32,0,0,1-.3-.319h0a3.547,3.547,0,0,0-3.546-3.547.318.318,0,0,1-.319-.3h0a.319.319,0,0,1,.319-.319h0a3.547,3.547,0,0,0,3.546-3.546.319.319,0,0,1,.281-.353l.02,0h0a.319.319,0,0,1,.319.319h0a3.546,3.546,0,0,0,3.547,3.546h0a.319.319,0,0,1,.319.32h0a.32.32,0,0,1-.319.3h0a3.547,3.547,0,0,0-3.547,3.546.319.319,0,0,1-.281.353Z" fill="#50e6ff"/>
      <path d="M620.911,90.318a.248.248,0,0,1-.248-.248h0a2.854,2.854,0,0,0-2.854-2.855.249.249,0,0,1-.249-.248h0a.249.249,0,0,1,.249-.248h0a2.854,2.854,0,0,0,2.854-2.855.248.248,0,0,1,.248-.248h0a.248.248,0,0,1,.249.248h0a2.854,2.854,0,0,0,2.854,2.855h0a.248.248,0,1,1,0,.5h0a2.854,2.854,0,0,0-2.854,2.855h0a.248.248,0,0,1-.249.248Z" fill="#50e6ff"/>
      <path d="M619.83,72.712a10.852,10.852,0,1,1-.011-.046Z" fill="url(#radial-gradient-2)"/>
      <g clip-path="url(#clip-path)">
        <g>
          <path d="M603.358,82.623a2.908,2.908,0,0,0,0-5.815h0a1.152,1.152,0,0,0,0-.249,2.925,2.925,0,0,0-2.925-2.908h-2.181a11.706,11.706,0,0,0,2.925,8.972Z" fill="#f2f2f2"/>
          <path d="M619.83,73.208h0a10.644,10.644,0,0,0-2.5-5.106,2.51,2.51,0,0,0-.514-.16,3.19,3.19,0,0,0-4.078,2.873h-.373a3.066,3.066,0,0,0-3,3.067,3.032,3.032,0,0,0,2.039,2.89,2.561,2.561,0,0,0,.957.195h3.546A22.607,22.607,0,0,0,619.83,73.208Z" fill="#f2f2f2"/>
        </g>
      </g>
      <path d="M623.713,66.151c-1.117-1.861-3.724-2.57-7.358-2.039a28.634,28.634,0,0,0-3.617.8,12.148,12.148,0,0,1,2.712,1.366l1.277-.266a13.264,13.264,0,0,1,1.95-.16c1.773,0,2.979.443,3.547,1.294h0c.673,1.117.106,3.068-1.561,5.32a32.691,32.691,0,0,1-18.918,11.17c-2.766.425-4.752,0-5.426-1.117s-.106-3.068,1.561-5.319c.212-.266.266-.408.5-.692a11.248,11.248,0,0,1,.053-2.961,19.545,19.545,0,0,0-2.074,2.518c-2.2,2.943-2.8,5.585-1.685,7.429a5.6,5.6,0,0,0,5.142,2.216,14.122,14.122,0,0,0,2.287-.177,31.428,31.428,0,0,0,11.029-4.255,31.578,31.578,0,0,0,8.9-7.731C624.227,70.655,624.83,68.013,623.713,66.151Z" fill="#50e6ff"/>
    </g>
  </g>
  <g id="Text">
    <g>
      <path d="M254.265,22.4H252.2l-.6-1.869h-2.988l-.592,1.869h-2.051l3.059-8.4h2.244Zm-3.093-3.322-.9-2.824a3.689,3.689,0,0,1-.14-.756h-.047a3.18,3.18,0,0,1-.147.732l-.914,2.848Z" fill="#1e1e1e"/>
      <path d="M260.193,22.4h-5.385v-.767l3.012-3.867h-2.713V16.4h5.063v.914l-2.854,3.721h2.877Z" fill="#1e1e1e"/>
      <path d="M266.958,22.4h-1.846v-.914h-.029a2.094,2.094,0,0,1-1.834,1.061q-2.087,0-2.086-2.526V16.4h1.846v3.457q0,1.272,1.007,1.272a1,1,0,0,0,.8-.349,1.4,1.4,0,0,0,.3-.946V16.4h1.846Z" fill="#1e1e1e"/>
      <path d="M272.4,18.071a1.6,1.6,0,0,0-.779-.181,1.121,1.121,0,0,0-.943.442,1.927,1.927,0,0,0-.34,1.2V22.4h-1.852v-6h1.852v1.114h.023A1.6,1.6,0,0,1,271.94,16.3a1.187,1.187,0,0,1,.457.07Z" fill="#1e1e1e"/>
      <path d="M278.725,19.929h-3.914q.095,1.307,1.647,1.306a3.218,3.218,0,0,0,1.74-.468V22.1a4.569,4.569,0,0,1-2.162.446,2.793,2.793,0,0,1-3.059-3.053,3.208,3.208,0,0,1,.868-2.367,2.888,2.888,0,0,1,2.132-.873,2.626,2.626,0,0,1,2.031.779,3,3,0,0,1,.717,2.115Zm-1.716-1.137q0-1.289-1.043-1.289a1,1,0,0,0-.771.369,1.675,1.675,0,0,0-.395.92Z" fill="#1e1e1e"/>
      <path d="M237.542,36.8H232.5V28.4h4.845V29.94H234.4v1.869h2.748v1.535H234.4v1.922h3.147Z" fill="#1e1e1e"/>
      <path d="M244.327,30.8l-2.232,6h-2.11l-2.127-6h1.981l1.043,3.7a5.452,5.452,0,0,1,.2,1.067h.023a6.14,6.14,0,0,1,.217-1.031l1.066-3.733Z" fill="#1e1e1e"/>
      <path d="M250.326,34.329h-3.914q.093,1.307,1.646,1.306a3.211,3.211,0,0,0,1.741-.469V36.5a4.572,4.572,0,0,1-2.162.446,2.793,2.793,0,0,1-3.059-3.053,3.211,3.211,0,0,1,.867-2.367,2.889,2.889,0,0,1,2.133-.873,2.619,2.619,0,0,1,2.03.779,3,3,0,0,1,.718,2.115Zm-1.717-1.137q0-1.29-1.043-1.289a1,1,0,0,0-.77.369,1.676,1.676,0,0,0-.4.92Z" fill="#1e1e1e"/>
      <path d="M257.3,36.8h-1.846V33.467q0-1.394-1-1.394a.989.989,0,0,0-.791.369,1.405,1.405,0,0,0-.311.937V36.8h-1.851v-6h1.851v.949h.024a2.121,2.121,0,0,1,1.927-1.095q1.994,0,1.993,2.472Z" fill="#1e1e1e"/>
      <path d="M262.323,36.731a2.74,2.74,0,0,1-1.236.217q-1.957,0-1.957-2.034V32.166h-.973V30.8h.973V29.506l1.845-.527V30.8h1.348v1.365h-1.348v2.426q0,.938.745.938a1.257,1.257,0,0,0,.6-.17Z" fill="#1e1e1e"/>
      <path d="M273.755,36.239a6.056,6.056,0,0,1-3.059.709,4.423,4.423,0,0,1-3.2-1.122,4.084,4.084,0,0,1-1.169-3.091,4.317,4.317,0,0,1,1.277-3.229,4.656,4.656,0,0,1,3.4-1.248,6.906,6.906,0,0,1,2.355.369V30.4a4.68,4.68,0,0,0-2.379-.563,2.553,2.553,0,0,0-1.919.765,3.264,3.264,0,0,0-.076,4.046,2.346,2.346,0,0,0,1.8.709,2.5,2.5,0,0,0,1.078-.194v-1.64h-1.681V32.014h3.574Z" fill="#1e1e1e"/>
      <path d="M279.188,32.471a1.6,1.6,0,0,0-.779-.182,1.122,1.122,0,0,0-.943.443,1.927,1.927,0,0,0-.34,1.2V36.8h-1.852v-6h1.852v1.113h.023a1.6,1.6,0,0,1,1.582-1.218,1.187,1.187,0,0,1,.457.07Z" fill="#1e1e1e"/>
      <path d="M280.987,29.852a1.083,1.083,0,0,1-.767-.278.9.9,0,0,1-.3-.683.864.864,0,0,1,.3-.68,1.256,1.256,0,0,1,1.538,0,.871.871,0,0,1,.3.68.893.893,0,0,1-.3.691A1.1,1.1,0,0,1,280.987,29.852ZM281.9,36.8H280.05v-6H281.9Z" fill="#1e1e1e"/>
      <path d="M289.331,36.8h-1.852v-.826h-.023a2.078,2.078,0,0,1-1.858.973,2.275,2.275,0,0,1-1.81-.794,3.289,3.289,0,0,1-.686-2.218,3.578,3.578,0,0,1,.756-2.385,2.467,2.467,0,0,1,1.981-.9,1.685,1.685,0,0,1,1.617.832h.023V27.918h1.852Zm-1.816-2.918v-.451a1.423,1.423,0,0,0-.34-.973,1.2,1.2,0,0,0-1.846.1,2.241,2.241,0,0,0-.346,1.327,1.946,1.946,0,0,0,.334,1.219,1.186,1.186,0,0,0,1.843-.023A1.885,1.885,0,0,0,287.515,33.883Z" fill="#1e1e1e"/>
    </g>
    <g>
      <path d="M409.318,19.067a3.817,3.817,0,0,1-.782,2.584,2.842,2.842,0,0,1-2.265.9,3.209,3.209,0,0,1-1.224-.229V20.544a1.757,1.757,0,0,0,1.09.369q1.295,0,1.294-1.922V14h1.887Z" fill="#1e1e1e"/>
      <path d="M413.753,22.548a3.226,3.226,0,0,1-2.359-.841,3.049,3.049,0,0,1-.858-2.282,3.047,3.047,0,0,1,.891-2.329,3.361,3.361,0,0,1,2.408-.841,3.186,3.186,0,0,1,2.344.841,2.987,2.987,0,0,1,.849,2.223,3.176,3.176,0,0,1-.876,2.362A3.262,3.262,0,0,1,413.753,22.548Zm.047-4.875a1.234,1.234,0,0,0-1.02.451,1.991,1.991,0,0,0-.363,1.277q0,1.729,1.394,1.729,1.33,0,1.33-1.776Q415.141,17.673,413.8,17.673Z" fill="#1e1e1e"/>
      <path d="M420.1,21.7h-.024v.7h-1.851V13.518h1.851V17.3h.024a2.195,2.195,0,0,1,1.951-1.049,2.139,2.139,0,0,1,1.787.8,3.435,3.435,0,0,1,.627,2.179,3.721,3.721,0,0,1-.733,2.409,2.386,2.386,0,0,1-1.957.908A1.887,1.887,0,0,1,420.1,21.7Zm-.053-2.531v.615a1.4,1.4,0,0,0,.334.961,1.085,1.085,0,0,0,.855.381,1.137,1.137,0,0,0,.982-.489,2.37,2.37,0,0,0,.348-1.386,1.878,1.878,0,0,0-.319-1.163,1.076,1.076,0,0,0-.911-.419,1.175,1.175,0,0,0-.923.416A1.579,1.579,0,0,0,420.044,19.173Z" fill="#1e1e1e"/>
      <path d="M428.768,22.079V20.2a3.614,3.614,0,0,0,1.108.642,3.573,3.573,0,0,0,1.207.214,2.676,2.676,0,0,0,.624-.065,1.436,1.436,0,0,0,.445-.179.787.787,0,0,0,.267-.269.681.681,0,0,0,.088-.337.729.729,0,0,0-.141-.44,1.529,1.529,0,0,0-.384-.357,3.966,3.966,0,0,0-.577-.316c-.223-.1-.463-.205-.721-.311a3.666,3.666,0,0,1-1.467-1,2.183,2.183,0,0,1-.484-1.43A2.278,2.278,0,0,1,429,15.226a2.241,2.241,0,0,1,.718-.776A3.22,3.22,0,0,1,430.766,14a5.4,5.4,0,0,1,1.266-.144,7.7,7.7,0,0,1,1.163.079,4.551,4.551,0,0,1,.935.244v1.752a2.8,2.8,0,0,0-.46-.258,3.689,3.689,0,0,0-.513-.185,3.842,3.842,0,0,0-.524-.108,3.622,3.622,0,0,0-.5-.035,2.579,2.579,0,0,0-.586.061,1.51,1.51,0,0,0-.446.173.85.85,0,0,0-.281.267.632.632,0,0,0-.1.348.667.667,0,0,0,.112.378,1.28,1.28,0,0,0,.316.317,3.47,3.47,0,0,0,.5.293c.2.095.416.194.662.295a7.355,7.355,0,0,1,.906.449,3.219,3.219,0,0,1,.688.536,2.108,2.108,0,0,1,.44.682,2.426,2.426,0,0,1,.152.894,2.393,2.393,0,0,1-.267,1.181,2.162,2.162,0,0,1-.723.773,3.153,3.153,0,0,1-1.064.425,6.139,6.139,0,0,1-1.28.129,7.136,7.136,0,0,1-1.316-.117A4.013,4.013,0,0,1,428.768,22.079Z" fill="#1e1e1e"/>
      <path d="M439.145,22.331a2.727,2.727,0,0,1-1.236.217q-1.957,0-1.957-2.033V17.767h-.973V16.4h.973V15.106l1.846-.527V16.4h1.347v1.366H437.8v2.425q0,.938.744.938a1.257,1.257,0,0,0,.6-.17Z" fill="#1e1e1e"/>
      <path d="M445.309,22.4h-1.752V21.54h-.023a1.955,1.955,0,0,1-1.787,1.008,1.87,1.87,0,0,1-1.374-.495,1.775,1.775,0,0,1-.5-1.322q0-1.746,2.068-2.015l1.629-.217q0-.984-1.066-.984a3.636,3.636,0,0,0-2.039.638V16.759a4.6,4.6,0,0,1,1.057-.352,5.6,5.6,0,0,1,1.222-.152,2.265,2.265,0,0,1,2.566,2.56Zm-1.74-2.437v-.4l-1.09.14q-.9.117-.9.815a.671.671,0,0,0,.22.518.84.84,0,0,0,.594.2,1.1,1.1,0,0,0,.85-.36A1.3,1.3,0,0,0,443.569,19.964Z" fill="#1e1e1e"/>
      <path d="M450.313,22.331a2.727,2.727,0,0,1-1.236.217q-1.957,0-1.957-2.033V17.767h-.973V16.4h.973V15.106l1.846-.527V16.4h1.347v1.366h-1.347v2.425q0,.938.744.938a1.257,1.257,0,0,0,.6-.17Z" fill="#1e1e1e"/>
      <path d="M457.149,22.4H455.3v-.914h-.03a2.094,2.094,0,0,1-1.834,1.061q-2.085,0-2.086-2.526V16.4H453.2v3.457q0,1.272,1.008,1.272a1,1,0,0,0,.8-.349,1.406,1.406,0,0,0,.3-.946V16.4h1.845Z" fill="#1e1e1e"/>
      <path d="M458.415,22.243v-1.5a3.931,3.931,0,0,0,.911.41,3.018,3.018,0,0,0,.858.135,1.84,1.84,0,0,0,.777-.135.435.435,0,0,0,.284-.41.38.38,0,0,0-.129-.293,1.208,1.208,0,0,0-.331-.2,3.725,3.725,0,0,0-.442-.158q-.242-.07-.463-.158a4.441,4.441,0,0,1-.63-.29,1.82,1.82,0,0,1-.457-.361,1.406,1.406,0,0,1-.281-.474,1.884,1.884,0,0,1-.1-.639,1.638,1.638,0,0,1,.22-.867,1.782,1.782,0,0,1,.586-.595,2.676,2.676,0,0,1,.837-.34,4.392,4.392,0,0,1,.982-.108,5.43,5.43,0,0,1,.808.061,6.052,6.052,0,0,1,.809.179v1.43a2.889,2.889,0,0,0-.753-.308,3.187,3.187,0,0,0-.788-.1,1.715,1.715,0,0,0-.343.032,1.114,1.114,0,0,0-.284.094.516.516,0,0,0-.193.158.361.361,0,0,0-.071.219.408.408,0,0,0,.106.282.922.922,0,0,0,.275.2,2.755,2.755,0,0,0,.378.152c.139.045.277.091.413.138a5.46,5.46,0,0,1,.668.281,2.137,2.137,0,0,1,.513.358,1.383,1.383,0,0,1,.328.48,1.925,1.925,0,0,1-.117,1.567,1.857,1.857,0,0,1-.615.616,2.79,2.79,0,0,1-.885.345,4.86,4.86,0,0,1-1.04.109A5.363,5.363,0,0,1,458.415,22.243Z" fill="#1e1e1e"/>
      <path d="M413.726,29.94h-2.964V32h2.724v1.536h-2.724V36.8h-1.893V28.4h4.857Z" fill="#1e1e1e"/>
      <path d="M420.379,36.8h-1.846v-.914H418.5a2.1,2.1,0,0,1-1.834,1.061q-2.087,0-2.086-2.526V30.8h1.846v3.457q0,1.272,1.007,1.272a1,1,0,0,0,.8-.349,1.406,1.406,0,0,0,.3-.946V30.8h1.846Z" fill="#1e1e1e"/>
      <path d="M427.7,36.8h-1.846V33.467q0-1.394-1-1.394a.989.989,0,0,0-.791.369,1.4,1.4,0,0,0-.31.937V36.8h-1.852v-6h1.852v.949h.023a2.123,2.123,0,0,1,1.928-1.095q1.992,0,1.992,2.472Z" fill="#1e1e1e"/>
      <path d="M433.722,36.584a3.653,3.653,0,0,1-1.811.364,3.063,3.063,0,0,1-2.238-.838,2.892,2.892,0,0,1-.856-2.162,3.187,3.187,0,0,1,.917-2.411,3.39,3.39,0,0,1,2.452-.882,3.146,3.146,0,0,1,1.536.281v1.57a2.113,2.113,0,0,0-1.295-.433,1.7,1.7,0,0,0-1.263.466,1.735,1.735,0,0,0-.466,1.286,1.714,1.714,0,0,0,.445,1.251,1.64,1.64,0,0,0,1.225.454,2.448,2.448,0,0,0,1.354-.434Z" fill="#1e1e1e"/>
      <path d="M438.643,36.731a2.74,2.74,0,0,1-1.236.217q-1.958,0-1.957-2.034V32.166h-.973V30.8h.973V29.506l1.846-.527V30.8h1.347v1.365H437.3v2.426q0,.938.744.938a1.257,1.257,0,0,0,.6-.17Z" fill="#1e1e1e"/>
      <path d="M440.69,29.852a1.083,1.083,0,0,1-.767-.278.9.9,0,0,1-.3-.683.864.864,0,0,1,.3-.68,1.256,1.256,0,0,1,1.538,0,.871.871,0,0,1,.3.68.893.893,0,0,1-.3.691A1.1,1.1,0,0,1,440.69,29.852ZM441.6,36.8h-1.851v-6H441.6Z" fill="#1e1e1e"/>
      <path d="M446,36.948a3.226,3.226,0,0,1-2.358-.841,3.475,3.475,0,0,1,.032-4.611,3.363,3.363,0,0,1,2.408-.841,3.186,3.186,0,0,1,2.344.841,2.987,2.987,0,0,1,.849,2.223,3.176,3.176,0,0,1-.876,2.362A3.26,3.26,0,0,1,446,36.948Zm.047-4.875a1.236,1.236,0,0,0-1.02.451,1.99,1.99,0,0,0-.363,1.277q0,1.73,1.395,1.729,1.329,0,1.33-1.776Q447.384,32.073,446.042,32.073Z" fill="#1e1e1e"/>
      <path d="M456.259,36.8h-1.846V33.467q0-1.394-1-1.394a.989.989,0,0,0-.791.369,1.405,1.405,0,0,0-.311.937V36.8h-1.851v-6h1.851v.949h.024a2.121,2.121,0,0,1,1.927-1.095q1.993,0,1.993,2.472Z" fill="#1e1e1e"/>
    </g>
    <g>
      <path d="M162.377,22.4h-1.172L159.8,20.045a5.19,5.19,0,0,0-.375-.559,2.121,2.121,0,0,0-.372-.378,1.283,1.283,0,0,0-.411-.214,1.679,1.679,0,0,0-.5-.067h-.808V22.4h-.985V14h2.508a3.573,3.573,0,0,1,1.017.138,2.284,2.284,0,0,1,.808.419,1.951,1.951,0,0,1,.537.7,2.561,2.561,0,0,1,.061,1.787,2.109,2.109,0,0,1-.375.654,2.275,2.275,0,0,1-.586.489,2.966,2.966,0,0,1-.77.313v.024a1.781,1.781,0,0,1,.366.214,2.069,2.069,0,0,1,.3.284,3.83,3.83,0,0,1,.278.372c.092.139.194.3.308.483Zm-5.039-7.512v3.047h1.336a2.028,2.028,0,0,0,.682-.111,1.586,1.586,0,0,0,.542-.32,1.434,1.434,0,0,0,.358-.509,1.71,1.71,0,0,0,.129-.677,1.318,1.318,0,0,0-.437-1.052,1.875,1.875,0,0,0-1.263-.378Z" fill="#1e1e1e"/>
      <path d="M168.055,19.641h-4.237a2.249,2.249,0,0,0,.539,1.547,1.861,1.861,0,0,0,1.418.545,2.953,2.953,0,0,0,1.864-.668v.9a3.483,3.483,0,0,1-2.092.574,2.534,2.534,0,0,1-2-.817,3.342,3.342,0,0,1-.727-2.3,3.283,3.283,0,0,1,.794-2.282,2.546,2.546,0,0,1,1.972-.882,2.255,2.255,0,0,1,1.822.762,3.175,3.175,0,0,1,.645,2.115Zm-.985-.814a1.958,1.958,0,0,0-.4-1.3,1.367,1.367,0,0,0-1.1-.463,1.552,1.552,0,0,0-1.154.486,2.2,2.2,0,0,0-.586,1.272Z" fill="#1e1e1e"/>
      <path d="M170.492,21.534h-.023v3.627h-.961V16.4h.961v1.055h.023a2.273,2.273,0,0,1,2.074-1.2,2.2,2.2,0,0,1,1.811.806,3.34,3.34,0,0,1,.65,2.159,3.719,3.719,0,0,1-.732,2.411,2.438,2.438,0,0,1-2,.905A2.007,2.007,0,0,1,170.492,21.534Zm-.023-2.42v.838a1.782,1.782,0,0,0,.483,1.262,1.724,1.724,0,0,0,2.6-.149,3.066,3.066,0,0,0,.5-1.858,2.416,2.416,0,0,0-.463-1.57,1.533,1.533,0,0,0-1.254-.568,1.7,1.7,0,0,0-1.348.583A2.143,2.143,0,0,0,170.469,19.114Z" fill="#1e1e1e"/>
      <path d="M179.07,22.541a2.784,2.784,0,0,1-2.124-.84,3.117,3.117,0,0,1-.794-2.23,3.246,3.246,0,0,1,.826-2.361,2.969,2.969,0,0,1,2.233-.85,2.7,2.7,0,0,1,2.095.826,3.281,3.281,0,0,1,.752,2.291,3.223,3.223,0,0,1-.811,2.3A2.845,2.845,0,0,1,179.07,22.541Zm.07-5.472a1.826,1.826,0,0,0-1.464.63,2.583,2.583,0,0,0-.539,1.737,2.45,2.45,0,0,0,.544,1.682,1.854,1.854,0,0,0,1.459.615,1.755,1.755,0,0,0,1.433-.6,2.616,2.616,0,0,0,.5-1.716,2.665,2.665,0,0,0-.5-1.735A1.749,1.749,0,0,0,179.14,17.069Z" fill="#1e1e1e"/>
      <path d="M186.668,17.373a1.181,1.181,0,0,0-.727-.193,1.225,1.225,0,0,0-1.028.58,2.685,2.685,0,0,0-.413,1.582V22.4h-.961v-6h.961v1.236h.023a2.1,2.1,0,0,1,.627-.987,1.432,1.432,0,0,1,.944-.355,1.583,1.583,0,0,1,.574.082Z" fill="#1e1e1e"/>
      <path d="M190.891,22.342a1.849,1.849,0,0,1-.9.188q-1.577,0-1.576-1.758V17.221h-1.031V16.4h1.031V14.936l.961-.311V16.4h1.511v.82H189.38V20.6a1.4,1.4,0,0,0,.205.861.818.818,0,0,0,.68.258,1,1,0,0,0,.626-.2Z" fill="#1e1e1e"/>
      <path d="M158.233,36.584V35.553a2.851,2.851,0,0,0,1.729.58q1.266,0,1.265-.844a.733.733,0,0,0-.108-.407,1.069,1.069,0,0,0-.293-.3,2.291,2.291,0,0,0-.434-.232c-.166-.068-.344-.139-.536-.213a6.93,6.93,0,0,1-.7-.32,2.105,2.105,0,0,1-.5-.363,1.342,1.342,0,0,1-.3-.46,1.615,1.615,0,0,1-.1-.6,1.433,1.433,0,0,1,.193-.747,1.729,1.729,0,0,1,.516-.545,2.439,2.439,0,0,1,.735-.331,3.278,3.278,0,0,1,.853-.111,3.436,3.436,0,0,1,1.394.27V31.9a2.716,2.716,0,0,0-1.523-.433,1.775,1.775,0,0,0-.486.061,1.185,1.185,0,0,0-.372.173.794.794,0,0,0-.241.267.7.7,0,0,0-.085.342.828.828,0,0,0,.085.393.877.877,0,0,0,.249.281,1.914,1.914,0,0,0,.4.223c.156.066.334.139.533.217a7.36,7.36,0,0,1,.715.313,2.511,2.511,0,0,1,.539.363,1.437,1.437,0,0,1,.343.466,1.505,1.505,0,0,1,.12.627,1.48,1.48,0,0,1-.2.774,1.682,1.682,0,0,1-.524.545,2.411,2.411,0,0,1-.756.322,3.746,3.746,0,0,1-.9.105A3.41,3.41,0,0,1,158.233,36.584Z" fill="#1e1e1e"/>
      <path d="M166.517,36.742a1.849,1.849,0,0,1-.9.188q-1.577,0-1.576-1.758V31.621h-1.031V30.8h1.031V29.336l.961-.311V30.8h1.511v.82h-1.511V35a1.4,1.4,0,0,0,.205.861.817.817,0,0,0,.679.258,1.006,1.006,0,0,0,.627-.2Z" fill="#1e1e1e"/>
      <path d="M172.2,36.8h-.961v-.938h-.023a2.011,2.011,0,0,1-1.846,1.078,1.973,1.973,0,0,1-1.4-.474,1.646,1.646,0,0,1-.507-1.26q0-1.682,1.98-1.957l1.8-.252q0-1.53-1.236-1.529a2.954,2.954,0,0,0-1.957.738v-.984a3.718,3.718,0,0,1,2.039-.563q2.115,0,2.115,2.238Zm-.961-3.035-1.447.2a2.35,2.35,0,0,0-1.008.331.956.956,0,0,0-.34.841.914.914,0,0,0,.314.717,1.209,1.209,0,0,0,.835.279,1.541,1.541,0,0,0,1.18-.5,1.789,1.789,0,0,0,.466-1.269Z" fill="#1e1e1e"/>
      <path d="M176.714,36.742a1.856,1.856,0,0,1-.9.188q-1.577,0-1.576-1.758V31.621H173.21V30.8h1.031V29.336l.961-.311V30.8h1.512v.82H175.2V35a1.4,1.4,0,0,0,.205.861.818.818,0,0,0,.68.258,1.01,1.01,0,0,0,.627-.2Z" fill="#1e1e1e"/>
      <path d="M182.825,36.8h-.961v-.95h-.023a1.974,1.974,0,0,1-1.852,1.09q-2.145,0-2.144-2.554V30.8h.955v3.433q0,1.9,1.453,1.9a1.469,1.469,0,0,0,1.157-.519,1.983,1.983,0,0,0,.454-1.356V30.8h.961Z" fill="#1e1e1e"/>
      <path d="M184.346,36.584V35.553a2.846,2.846,0,0,0,1.728.58q1.266,0,1.266-.844a.725.725,0,0,0-.109-.407,1.069,1.069,0,0,0-.293-.3,2.281,2.281,0,0,0-.433-.232q-.249-.1-.536-.213a6.954,6.954,0,0,1-.7-.32,2.079,2.079,0,0,1-.5-.363,1.345,1.345,0,0,1-.3-.46,1.615,1.615,0,0,1-.1-.6,1.434,1.434,0,0,1,.194-.747,1.726,1.726,0,0,1,.515-.545,2.434,2.434,0,0,1,.736-.331,3.264,3.264,0,0,1,.852-.111,3.437,3.437,0,0,1,1.4.27V31.9a2.722,2.722,0,0,0-1.524-.433,1.78,1.78,0,0,0-.486.061,1.185,1.185,0,0,0-.372.173.781.781,0,0,0-.24.267.694.694,0,0,0-.085.342.816.816,0,0,0,.085.393.853.853,0,0,0,.249.281,1.88,1.88,0,0,0,.4.223c.156.066.334.139.533.217a7.36,7.36,0,0,1,.715.313,2.486,2.486,0,0,1,.539.363,1.422,1.422,0,0,1,.343.466,1.505,1.505,0,0,1,.12.627,1.479,1.479,0,0,1-.2.774,1.7,1.7,0,0,1-.525.545,2.4,2.4,0,0,1-.755.322,3.754,3.754,0,0,1-.9.105A3.406,3.406,0,0,1,184.346,36.584Z" fill="#1e1e1e"/>
    </g>
    <g>
      <path d="M325.392,31.4h-4.453V23h4.266v.891h-3.281v2.8h3.035v.885h-3.035V30.51h3.468Z" fill="#1e1e1e"/>
      <path d="M331.43,25.4l-2.391,6H328.1l-2.274-6h1.055L328.4,29.76a3.865,3.865,0,0,1,.211.838h.024a3.944,3.944,0,0,1,.187-.814l1.594-4.383Z" fill="#1e1e1e"/>
      <path d="M337.132,28.641H332.9a2.249,2.249,0,0,0,.539,1.547,1.861,1.861,0,0,0,1.418.545,2.953,2.953,0,0,0,1.864-.668v.9a3.483,3.483,0,0,1-2.092.574,2.534,2.534,0,0,1-2-.817,3.342,3.342,0,0,1-.727-2.3,3.283,3.283,0,0,1,.794-2.282,2.547,2.547,0,0,1,1.972-.882,2.255,2.255,0,0,1,1.822.762,3.175,3.175,0,0,1,.645,2.115Zm-.985-.814a1.952,1.952,0,0,0-.4-1.3,1.367,1.367,0,0,0-1.1-.463,1.552,1.552,0,0,0-1.154.486,2.207,2.207,0,0,0-.586,1.272Z" fill="#1e1e1e"/>
      <path d="M343.565,31.4H342.6V27.979q0-1.91-1.394-1.91a1.512,1.512,0,0,0-1.193.542,2.009,2.009,0,0,0-.471,1.368V31.4h-.961v-6h.961v1h.023a2.166,2.166,0,0,1,1.969-1.137,1.836,1.836,0,0,1,1.506.636,2.836,2.836,0,0,1,.521,1.837Z" fill="#1e1e1e"/>
      <path d="M348.057,31.342a1.849,1.849,0,0,1-.9.188q-1.576,0-1.576-1.758V26.221h-1.031V25.4h1.031V23.936l.961-.311V25.4h1.511v.82h-1.511V29.6a1.4,1.4,0,0,0,.2.861.818.818,0,0,0,.68.258,1,1,0,0,0,.626-.2Z" fill="#1e1e1e"/>
      <path d="M359.038,30.827a5.625,5.625,0,0,1-2.813.714,3.841,3.841,0,0,1-2.909-1.16,4.255,4.255,0,0,1-1.11-3.07,4.369,4.369,0,0,1,1.233-3.2,4.207,4.207,0,0,1,3.126-1.251,5.319,5.319,0,0,1,2.3.445v1.09a4.42,4.42,0,0,0-2.414-.645,3.017,3.017,0,0,0-2.314.973,3.557,3.557,0,0,0-.9,2.52,3.56,3.56,0,0,0,.838,2.5,2.938,2.938,0,0,0,2.273.911,3.513,3.513,0,0,0,1.706-.393V27.909h-1.84v-.891h2.824Z" fill="#1e1e1e"/>
      <path d="M363.963,26.373a1.181,1.181,0,0,0-.727-.193,1.225,1.225,0,0,0-1.028.58,2.678,2.678,0,0,0-.413,1.582V31.4h-.961v-6h.961v1.236h.023a2.1,2.1,0,0,1,.627-.987,1.432,1.432,0,0,1,.944-.355,1.583,1.583,0,0,1,.574.082Z" fill="#1e1e1e"/>
      <path d="M365.529,23.877a.607.607,0,0,1-.439-.175.6.6,0,0,1-.182-.446.616.616,0,0,1,.621-.627.62.62,0,0,1,.448.179.625.625,0,0,1,0,.888A.614.614,0,0,1,365.529,23.877ZM366,31.4h-.961v-6H366Z" fill="#1e1e1e"/>
      <path d="M372.987,31.4h-.961v-1.02H372a2.422,2.422,0,0,1-3.87.355,3.3,3.3,0,0,1-.677-2.2,3.593,3.593,0,0,1,.75-2.384,2.473,2.473,0,0,1,2-.9,1.923,1.923,0,0,1,1.8.973h.023V22.518h.961Zm-.961-2.713V27.8a1.717,1.717,0,0,0-.48-1.23,1.613,1.613,0,0,0-1.219-.5,1.661,1.661,0,0,0-1.383.644,2.827,2.827,0,0,0-.5,1.782,2.534,2.534,0,0,0,.484,1.637,1.578,1.578,0,0,0,1.3.6,1.642,1.642,0,0,0,1.3-.58A2.162,2.162,0,0,0,372.026,28.688Z" fill="#1e1e1e"/>
      <path d="M334.5,38.289h-2.426V45.8h-.984V38.289h-2.42V37.4h5.83Z" fill="#1e1e1e"/>
      <path d="M337.968,40.773a1.177,1.177,0,0,0-.727-.193,1.225,1.225,0,0,0-1.028.58,2.678,2.678,0,0,0-.413,1.582V45.8h-.961v-6h.961v1.236h.023a2.1,2.1,0,0,1,.627-.987,1.427,1.427,0,0,1,.943-.355,1.589,1.589,0,0,1,.575.082Z" fill="#1e1e1e"/>
      <path d="M339.534,38.277a.6.6,0,0,1-.439-.176.589.589,0,0,1-.182-.445.616.616,0,0,1,.621-.627.62.62,0,0,1,.448.179.625.625,0,0,1,0,.888A.614.614,0,0,1,339.534,38.277ZM340,45.8h-.961v-6H340Z" fill="#1e1e1e"/>
      <path d="M346.993,45.32q0,3.3-3.164,3.305a4.249,4.249,0,0,1-1.945-.422v-.961a3.993,3.993,0,0,0,1.933.563q2.215,0,2.215-2.356v-.656h-.023a2.429,2.429,0,0,1-3.865.349,3.2,3.2,0,0,1-.682-2.148,3.74,3.74,0,0,1,.735-2.432,2.458,2.458,0,0,1,2.013-.9,1.956,1.956,0,0,1,1.8.973h.023V39.8h.961Zm-.961-2.232V42.2a1.718,1.718,0,0,0-.483-1.225,1.6,1.6,0,0,0-1.2-.509,1.671,1.671,0,0,0-1.4.647,2.891,2.891,0,0,0-.5,1.814,2.474,2.474,0,0,0,.484,1.6,1.56,1.56,0,0,0,1.28.6,1.674,1.674,0,0,0,1.315-.574A2.142,2.142,0,0,0,346.032,43.088Z" fill="#1e1e1e"/>
      <path d="M354.005,45.32q0,3.3-3.164,3.305A4.253,4.253,0,0,1,348.9,48.2v-.961a4,4,0,0,0,1.934.563q2.215,0,2.215-2.356v-.656h-.024a2.428,2.428,0,0,1-3.864.349,3.2,3.2,0,0,1-.683-2.148,3.74,3.74,0,0,1,.736-2.432,2.458,2.458,0,0,1,2.013-.9,1.954,1.954,0,0,1,1.8.973h.024V39.8h.961Zm-.961-2.232V42.2a1.714,1.714,0,0,0-.484-1.225,1.592,1.592,0,0,0-1.2-.509,1.67,1.67,0,0,0-1.394.647,2.891,2.891,0,0,0-.5,1.814,2.48,2.48,0,0,0,.483,1.6,1.562,1.562,0,0,0,1.281.6,1.674,1.674,0,0,0,1.315-.574A2.142,2.142,0,0,0,353.044,43.088Z" fill="#1e1e1e"/>
      <path d="M360.719,43.041h-4.237a2.249,2.249,0,0,0,.539,1.547,1.861,1.861,0,0,0,1.418.545,2.953,2.953,0,0,0,1.864-.668v.9a3.483,3.483,0,0,1-2.092.574,2.534,2.534,0,0,1-2-.817,3.344,3.344,0,0,1-.727-2.3,3.283,3.283,0,0,1,.794-2.282,2.546,2.546,0,0,1,1.972-.882,2.255,2.255,0,0,1,1.822.762,3.175,3.175,0,0,1,.645,2.115Zm-.985-.815a1.951,1.951,0,0,0-.4-1.294,1.367,1.367,0,0,0-1.1-.463,1.552,1.552,0,0,0-1.154.486,2.207,2.207,0,0,0-.586,1.271Z" fill="#1e1e1e"/>
      <path d="M365.3,40.773a1.177,1.177,0,0,0-.727-.193,1.225,1.225,0,0,0-1.028.58,2.678,2.678,0,0,0-.413,1.582V45.8h-.961v-6h.961v1.236h.023a2.1,2.1,0,0,1,.627-.987,1.427,1.427,0,0,1,.943-.355,1.589,1.589,0,0,1,.575.082Z" fill="#1e1e1e"/>
    </g>
    <g>
      <path d="M162.377,69.6h-1.172L159.8,67.246a5.113,5.113,0,0,0-.375-.56,2.155,2.155,0,0,0-.372-.378,1.283,1.283,0,0,0-.411-.214,1.679,1.679,0,0,0-.5-.067h-.808V69.6h-.985V61.2h2.508a3.609,3.609,0,0,1,1.017.137,2.284,2.284,0,0,1,.808.419,1.946,1.946,0,0,1,.537.7,2.333,2.333,0,0,1,.193.981,2.366,2.366,0,0,1-.132.806,2.1,2.1,0,0,1-.375.653,2.275,2.275,0,0,1-.586.489,3,3,0,0,1-.77.314v.023a1.827,1.827,0,0,1,.366.214,2.069,2.069,0,0,1,.3.284,4.092,4.092,0,0,1,.278.372c.092.139.194.3.308.484Zm-5.039-7.512v3.047h1.336a2.028,2.028,0,0,0,.682-.111,1.583,1.583,0,0,0,.542-.319,1.447,1.447,0,0,0,.358-.51,1.706,1.706,0,0,0,.129-.677,1.318,1.318,0,0,0-.437-1.052,1.875,1.875,0,0,0-1.263-.378Z" fill="#1e1e1e"/>
      <path d="M168.055,66.841h-4.237a2.249,2.249,0,0,0,.539,1.547,1.861,1.861,0,0,0,1.418.545,2.953,2.953,0,0,0,1.864-.668v.9a3.484,3.484,0,0,1-2.092.575,2.535,2.535,0,0,1-2-.818,3.342,3.342,0,0,1-.727-2.3,3.283,3.283,0,0,1,.794-2.282,2.546,2.546,0,0,1,1.972-.882,2.255,2.255,0,0,1,1.822.762,3.175,3.175,0,0,1,.645,2.115Zm-.985-.814a1.958,1.958,0,0,0-.4-1.3,1.367,1.367,0,0,0-1.1-.463,1.552,1.552,0,0,0-1.154.486,2.2,2.2,0,0,0-.586,1.272Z" fill="#1e1e1e"/>
      <path d="M170.492,68.734h-.023v3.627h-.961V63.6h.961v1.055h.023a2.273,2.273,0,0,1,2.074-1.2,2.2,2.2,0,0,1,1.811.806,3.34,3.34,0,0,1,.65,2.159,3.719,3.719,0,0,1-.732,2.411,2.438,2.438,0,0,1-2,.906A2.008,2.008,0,0,1,170.492,68.734Zm-.023-2.42v.838a1.782,1.782,0,0,0,.483,1.262,1.724,1.724,0,0,0,2.6-.149,3.063,3.063,0,0,0,.5-1.857,2.419,2.419,0,0,0-.463-1.571,1.533,1.533,0,0,0-1.254-.568,1.7,1.7,0,0,0-1.348.583A2.145,2.145,0,0,0,170.469,66.314Z" fill="#1e1e1e"/>
      <path d="M179.07,69.742a2.784,2.784,0,0,1-2.124-.841,3.117,3.117,0,0,1-.794-2.23,3.248,3.248,0,0,1,.826-2.361,2.973,2.973,0,0,1,2.233-.85,2.692,2.692,0,0,1,2.095.827,3.278,3.278,0,0,1,.752,2.291,3.221,3.221,0,0,1-.811,2.3A2.842,2.842,0,0,1,179.07,69.742Zm.07-5.473a1.826,1.826,0,0,0-1.464.63,2.583,2.583,0,0,0-.539,1.737,2.448,2.448,0,0,0,.544,1.682,1.854,1.854,0,0,0,1.459.615,1.757,1.757,0,0,0,1.433-.6,2.621,2.621,0,0,0,.5-1.717,2.667,2.667,0,0,0-.5-1.735A1.749,1.749,0,0,0,179.14,64.269Z" fill="#1e1e1e"/>
      <path d="M186.668,64.574a1.175,1.175,0,0,0-.727-.194,1.227,1.227,0,0,0-1.028.58,2.685,2.685,0,0,0-.413,1.582V69.6h-.961v-6h.961v1.236h.023a2.1,2.1,0,0,1,.627-.987,1.431,1.431,0,0,1,.944-.354,1.562,1.562,0,0,1,.574.082Z" fill="#1e1e1e"/>
      <path d="M190.891,69.542a1.849,1.849,0,0,1-.9.188q-1.577,0-1.576-1.758V64.421h-1.031V63.6h1.031V62.136l.961-.31V63.6h1.511v.82H189.38V67.8a1.4,1.4,0,0,0,.205.862.821.821,0,0,0,.68.257,1,1,0,0,0,.626-.2Z" fill="#1e1e1e"/>
      <path d="M158.233,83.784V82.753a2.844,2.844,0,0,0,1.729.58q1.266,0,1.265-.844a.733.733,0,0,0-.108-.407,1.083,1.083,0,0,0-.293-.3,2.235,2.235,0,0,0-.434-.231c-.166-.069-.344-.14-.536-.214a6.93,6.93,0,0,1-.7-.32,2.105,2.105,0,0,1-.5-.363,1.342,1.342,0,0,1-.3-.46,1.613,1.613,0,0,1-.1-.6,1.428,1.428,0,0,1,.193-.747,1.708,1.708,0,0,1,.516-.545,2.391,2.391,0,0,1,.735-.331,3.236,3.236,0,0,1,.853-.112,3.436,3.436,0,0,1,1.394.27V79.1a2.716,2.716,0,0,0-1.523-.433,1.775,1.775,0,0,0-.486.061,1.185,1.185,0,0,0-.372.173.794.794,0,0,0-.241.267.709.709,0,0,0-.085.343.827.827,0,0,0,.085.392.866.866,0,0,0,.249.281,1.914,1.914,0,0,0,.4.223q.234.1.533.217a7.36,7.36,0,0,1,.715.313,2.477,2.477,0,0,1,.539.364,1.422,1.422,0,0,1,.343.465,1.505,1.505,0,0,1,.12.627,1.48,1.48,0,0,1-.2.774,1.672,1.672,0,0,1-.524.545,2.411,2.411,0,0,1-.756.322,3.746,3.746,0,0,1-.9.106A3.41,3.41,0,0,1,158.233,83.784Z" fill="#1e1e1e"/>
      <path d="M166.517,83.942a1.849,1.849,0,0,1-.9.188q-1.577,0-1.576-1.758V78.821h-1.031V78h1.031V76.536l.961-.31V78h1.511v.82h-1.511V82.2a1.4,1.4,0,0,0,.205.861.817.817,0,0,0,.679.258,1.006,1.006,0,0,0,.627-.2Z" fill="#1e1e1e"/>
      <path d="M172.2,84h-.961v-.938h-.023a2.012,2.012,0,0,1-1.846,1.079,1.973,1.973,0,0,1-1.4-.475,1.643,1.643,0,0,1-.507-1.26q0-1.681,1.98-1.957l1.8-.252q0-1.528-1.236-1.529a2.954,2.954,0,0,0-1.957.738v-.984a3.718,3.718,0,0,1,2.039-.563q2.115,0,2.115,2.239Zm-.961-3.035-1.447.2a2.35,2.35,0,0,0-1.008.331.957.957,0,0,0-.34.841.917.917,0,0,0,.314.718,1.213,1.213,0,0,0,.835.278,1.541,1.541,0,0,0,1.18-.5,1.789,1.789,0,0,0,.466-1.269Z" fill="#1e1e1e"/>
      <path d="M176.714,83.942a1.856,1.856,0,0,1-.9.188q-1.577,0-1.576-1.758V78.821H173.21V78h1.031V76.536l.961-.31V78h1.512v.82H175.2V82.2a1.4,1.4,0,0,0,.205.861.818.818,0,0,0,.68.258,1.01,1.01,0,0,0,.627-.2Z" fill="#1e1e1e"/>
      <path d="M182.825,84h-.961v-.949h-.023a1.976,1.976,0,0,1-1.852,1.09q-2.145,0-2.144-2.555V78h.955v3.434q0,1.9,1.453,1.9a1.469,1.469,0,0,0,1.157-.519,1.98,1.98,0,0,0,.454-1.356V78h.961Z" fill="#1e1e1e"/>
      <path d="M184.346,83.784V82.753a2.839,2.839,0,0,0,1.728.58q1.266,0,1.266-.844a.725.725,0,0,0-.109-.407,1.083,1.083,0,0,0-.293-.3,2.225,2.225,0,0,0-.433-.231q-.249-.1-.536-.214a6.954,6.954,0,0,1-.7-.32,2.079,2.079,0,0,1-.5-.363,1.345,1.345,0,0,1-.3-.46,1.613,1.613,0,0,1-.1-.6,1.429,1.429,0,0,1,.194-.747,1.705,1.705,0,0,1,.515-.545,2.386,2.386,0,0,1,.736-.331,3.223,3.223,0,0,1,.852-.112,3.437,3.437,0,0,1,1.4.27V79.1a2.722,2.722,0,0,0-1.524-.433,1.78,1.78,0,0,0-.486.061,1.185,1.185,0,0,0-.372.173.781.781,0,0,0-.24.267.7.7,0,0,0-.085.343.815.815,0,0,0,.085.392.844.844,0,0,0,.249.281,1.88,1.88,0,0,0,.4.223q.234.1.533.217a7.36,7.36,0,0,1,.715.313,2.453,2.453,0,0,1,.539.364,1.408,1.408,0,0,1,.343.465,1.505,1.505,0,0,1,.12.627,1.479,1.479,0,0,1-.2.774,1.685,1.685,0,0,1-.525.545,2.4,2.4,0,0,1-.755.322,3.754,3.754,0,0,1-.9.106A3.406,3.406,0,0,1,184.346,83.784Z" fill="#1e1e1e"/>
    </g>
    <g>
      <path d="M504.254,10.342a3.69,3.69,0,0,1-2.863-1.178A4.372,4.372,0,0,1,500.316,6.1a4.627,4.627,0,0,1,1.1-3.235,3.825,3.825,0,0,1,2.982-1.207,3.605,3.605,0,0,1,2.8,1.172,4.384,4.384,0,0,1,1.064,3.064,4.643,4.643,0,0,1-1.09,3.252A3.756,3.756,0,0,1,504.254,10.342Zm.07-7.793a2.706,2.706,0,0,0-2.15.955,3.7,3.7,0,0,0-.826,2.508,3.724,3.724,0,0,0,.805,2.5,2.627,2.627,0,0,0,2.1.946,2.758,2.758,0,0,0,2.179-.9,3.686,3.686,0,0,0,.8-2.526,3.85,3.85,0,0,0-.773-2.572A2.652,2.652,0,0,0,504.324,2.549Z" fill="#1e1e1e"/>
      <path d="M514.765,10.2h-.96V6.779q0-1.909-1.395-1.91a1.513,1.513,0,0,0-1.192.542,2.005,2.005,0,0,0-.472,1.368V10.2h-.961v-6h.961v1h.023a2.167,2.167,0,0,1,1.969-1.137,1.836,1.836,0,0,1,1.506.636,2.83,2.83,0,0,1,.521,1.837Z" fill="#1e1e1e"/>
      <path d="M519.5,9.984V8.953a2.839,2.839,0,0,0,1.728.58q1.266,0,1.266-.844a.733.733,0,0,0-.108-.407,1.1,1.1,0,0,0-.293-.3,2.235,2.235,0,0,0-.434-.231q-.249-.1-.536-.214a7.061,7.061,0,0,1-.7-.319,2.135,2.135,0,0,1-.5-.364,1.336,1.336,0,0,1-.3-.46,1.634,1.634,0,0,1-.1-.6,1.433,1.433,0,0,1,.193-.747,1.708,1.708,0,0,1,.516-.545,2.38,2.38,0,0,1,.735-.331,3.265,3.265,0,0,1,.852-.112,3.437,3.437,0,0,1,1.395.27V5.3a2.717,2.717,0,0,0-1.523-.434,1.787,1.787,0,0,0-.487.062,1.2,1.2,0,0,0-.372.172.821.821,0,0,0-.24.267.7.7,0,0,0-.085.343.815.815,0,0,0,.085.392.869.869,0,0,0,.249.282,1.879,1.879,0,0,0,.4.222c.157.067.334.139.534.217a7.437,7.437,0,0,1,.714.314,2.416,2.416,0,0,1,.539.363,1.412,1.412,0,0,1,.343.466,1.5,1.5,0,0,1,.12.627,1.475,1.475,0,0,1-.2.773,1.693,1.693,0,0,1-.524.545,2.388,2.388,0,0,1-.756.322,3.7,3.7,0,0,1-.9.106A3.394,3.394,0,0,1,519.5,9.984Z" fill="#1e1e1e"/>
      <path d="M529.717,10.2h-.961V9.252h-.024a1.973,1.973,0,0,1-1.851,1.09q-2.145,0-2.145-2.555V4.2h.955V7.635q0,1.9,1.453,1.9a1.473,1.473,0,0,0,1.158-.518,1.989,1.989,0,0,0,.454-1.357V4.2h.961Z" fill="#1e1e1e"/>
      <path d="M535.679,9.926a3.127,3.127,0,0,1-1.641.416,2.717,2.717,0,0,1-2.071-.835,3.025,3.025,0,0,1-.788-2.165,3.328,3.328,0,0,1,.849-2.382,2.972,2.972,0,0,1,2.268-.9,3.158,3.158,0,0,1,1.394.293v.985a2.439,2.439,0,0,0-1.429-.469,1.932,1.932,0,0,0-1.509.659,2.5,2.5,0,0,0-.589,1.732,2.382,2.382,0,0,0,.554,1.664,1.908,1.908,0,0,0,1.485.609,2.414,2.414,0,0,0,1.477-.521Z" fill="#1e1e1e"/>
      <path d="M541.084,9.926a3.127,3.127,0,0,1-1.641.416,2.718,2.718,0,0,1-2.071-.835,3.029,3.029,0,0,1-.788-2.165,3.328,3.328,0,0,1,.849-2.382,2.973,2.973,0,0,1,2.268-.9,3.166,3.166,0,0,1,1.395.293v.985a2.442,2.442,0,0,0-1.43-.469,1.935,1.935,0,0,0-1.509.659,2.506,2.506,0,0,0-.589,1.732,2.382,2.382,0,0,0,.554,1.664,1.908,1.908,0,0,0,1.485.609,2.412,2.412,0,0,0,1.477-.521Z" fill="#1e1e1e"/>
      <path d="M547.239,7.441H543a2.24,2.24,0,0,0,.539,1.547,1.859,1.859,0,0,0,1.418.545,2.948,2.948,0,0,0,1.863-.668v.9a3.488,3.488,0,0,1-2.092.574,2.538,2.538,0,0,1-2-.818,3.346,3.346,0,0,1-.726-2.3,3.279,3.279,0,0,1,.794-2.283,2.544,2.544,0,0,1,1.971-.882,2.258,2.258,0,0,1,1.823.762,3.18,3.18,0,0,1,.644,2.115Zm-.984-.814a1.954,1.954,0,0,0-.4-1.295,1.365,1.365,0,0,0-1.1-.463,1.555,1.555,0,0,0-1.155.486,2.209,2.209,0,0,0-.585,1.272Z" fill="#1e1e1e"/>
      <path d="M548.313,9.984V8.953a2.844,2.844,0,0,0,1.729.58q1.266,0,1.265-.844a.733.733,0,0,0-.108-.407,1.083,1.083,0,0,0-.293-.3,2.225,2.225,0,0,0-.433-.231c-.167-.069-.345-.14-.537-.214a7.168,7.168,0,0,1-.7-.319,2.135,2.135,0,0,1-.5-.364,1.347,1.347,0,0,1-.3-.46,1.613,1.613,0,0,1-.1-.6,1.443,1.443,0,0,1,.193-.747,1.708,1.708,0,0,1,.516-.545,2.391,2.391,0,0,1,.735-.331,3.278,3.278,0,0,1,.853-.112,3.436,3.436,0,0,1,1.394.27V5.3a2.717,2.717,0,0,0-1.523-.434,1.774,1.774,0,0,0-.486.062,1.183,1.183,0,0,0-.372.172.813.813,0,0,0-.241.267.712.712,0,0,0-.085.343.827.827,0,0,0,.085.392.869.869,0,0,0,.249.282,1.913,1.913,0,0,0,.4.222q.234.1.533.217a7.352,7.352,0,0,1,.715.314,2.416,2.416,0,0,1,.539.363,1.426,1.426,0,0,1,.343.466,1.655,1.655,0,0,1-.076,1.4,1.685,1.685,0,0,1-.525.545,2.388,2.388,0,0,1-.756.322,3.7,3.7,0,0,1-.9.106A3.4,3.4,0,0,1,548.313,9.984Z" fill="#1e1e1e"/>
      <path d="M553.405,9.984V8.953a2.844,2.844,0,0,0,1.729.58q1.264,0,1.265-.844a.733.733,0,0,0-.108-.407,1.083,1.083,0,0,0-.293-.3,2.235,2.235,0,0,0-.434-.231c-.166-.069-.344-.14-.536-.214a7.168,7.168,0,0,1-.7-.319,2.135,2.135,0,0,1-.5-.364,1.35,1.35,0,0,1-.3-.46,1.634,1.634,0,0,1-.1-.6,1.433,1.433,0,0,1,.193-.747,1.708,1.708,0,0,1,.516-.545,2.391,2.391,0,0,1,.735-.331,3.278,3.278,0,0,1,.853-.112,3.436,3.436,0,0,1,1.394.27V5.3a2.717,2.717,0,0,0-1.523-.434,1.787,1.787,0,0,0-.487.062,1.2,1.2,0,0,0-.372.172.821.821,0,0,0-.24.267.712.712,0,0,0-.085.343.827.827,0,0,0,.085.392.869.869,0,0,0,.249.282,1.888,1.888,0,0,0,.4.222q.234.1.533.217a7.461,7.461,0,0,1,.715.314,2.44,2.44,0,0,1,.539.363,1.441,1.441,0,0,1,.343.466,1.5,1.5,0,0,1,.12.627,1.476,1.476,0,0,1-.2.773,1.682,1.682,0,0,1-.524.545,2.388,2.388,0,0,1-.756.322,3.7,3.7,0,0,1-.9.106A3.4,3.4,0,0,1,553.405,9.984Z" fill="#1e1e1e"/>
      <path d="M513.082,19.574a1.175,1.175,0,0,0-.727-.194,1.227,1.227,0,0,0-1.028.58,2.685,2.685,0,0,0-.413,1.582V24.6h-.961v-6h.961v1.236h.023a2.1,2.1,0,0,1,.627-.987,1.433,1.433,0,0,1,.944-.354,1.562,1.562,0,0,1,.574.082Z" fill="#1e1e1e"/>
      <path d="M518.961,21.841h-4.237a2.245,2.245,0,0,0,.54,1.547,1.857,1.857,0,0,0,1.417.545,2.953,2.953,0,0,0,1.864-.668v.9a3.484,3.484,0,0,1-2.092.575,2.535,2.535,0,0,1-2-.818,3.347,3.347,0,0,1-.727-2.3,3.283,3.283,0,0,1,.794-2.282,2.547,2.547,0,0,1,1.972-.882,2.254,2.254,0,0,1,1.822.762,3.175,3.175,0,0,1,.645,2.115Zm-.985-.814a1.947,1.947,0,0,0-.4-1.3,1.367,1.367,0,0,0-1.1-.463,1.553,1.553,0,0,0-1.154.486,2.21,2.21,0,0,0-.586,1.272Z" fill="#1e1e1e"/>
      <path d="M525.57,27.361h-.961V23.57h-.023a2.151,2.151,0,0,1-2.051,1.172,2.258,2.258,0,0,1-1.813-.806,3.282,3.282,0,0,1-.683-2.194,3.6,3.6,0,0,1,.75-2.388,2.5,2.5,0,0,1,2.016-.894,1.893,1.893,0,0,1,1.781.973h.023V18.6h.961Zm-.961-5.461v-.873a1.747,1.747,0,0,0-.483-1.248,1.619,1.619,0,0,0-1.228-.51,1.65,1.65,0,0,0-1.371.642,2.861,2.861,0,0,0-.5,1.807,2.474,2.474,0,0,0,.487,1.626,1.55,1.55,0,0,0,1.254.589,1.689,1.689,0,0,0,1.344-.577A2.142,2.142,0,0,0,524.609,21.9Z" fill="#1e1e1e"/>
      <path d="M532.29,24.6h-.961v-.949h-.023a1.976,1.976,0,0,1-1.852,1.09q-2.145,0-2.145-2.555V18.6h.956v3.434q0,1.9,1.453,1.9a1.47,1.47,0,0,0,1.157-.519,1.98,1.98,0,0,0,.454-1.356V18.6h.961Z" fill="#1e1e1e"/>
      <path d="M539,21.841h-4.237a2.245,2.245,0,0,0,.54,1.547,1.857,1.857,0,0,0,1.417.545,2.953,2.953,0,0,0,1.864-.668v.9a3.484,3.484,0,0,1-2.092.575,2.535,2.535,0,0,1-2-.818,3.347,3.347,0,0,1-.727-2.3,3.283,3.283,0,0,1,.794-2.282,2.547,2.547,0,0,1,1.972-.882,2.254,2.254,0,0,1,1.822.762A3.175,3.175,0,0,1,539,21.337Zm-.985-.814a1.947,1.947,0,0,0-.4-1.3,1.367,1.367,0,0,0-1.1-.463,1.553,1.553,0,0,0-1.154.486,2.21,2.21,0,0,0-.586,1.272Z" fill="#1e1e1e"/>
      <path d="M540.077,24.384V23.353a2.842,2.842,0,0,0,1.729.58q1.264,0,1.265-.844a.733.733,0,0,0-.108-.407,1.1,1.1,0,0,0-.293-.3,2.235,2.235,0,0,0-.434-.231q-.249-.1-.536-.214a7.061,7.061,0,0,1-.7-.319,2.135,2.135,0,0,1-.5-.364,1.36,1.36,0,0,1-.3-.46,1.634,1.634,0,0,1-.1-.6,1.431,1.431,0,0,1,.193-.747,1.708,1.708,0,0,1,.516-.545,2.391,2.391,0,0,1,.735-.331,3.231,3.231,0,0,1,.853-.112,3.436,3.436,0,0,1,1.394.27V19.7a2.717,2.717,0,0,0-1.523-.434,1.748,1.748,0,0,0-.487.062,1.2,1.2,0,0,0-.372.172.811.811,0,0,0-.24.267.7.7,0,0,0-.085.343.815.815,0,0,0,.085.392.869.869,0,0,0,.249.282,1.863,1.863,0,0,0,.4.222q.234.1.533.217a7.729,7.729,0,0,1,.715.313,2.477,2.477,0,0,1,.539.364,1.423,1.423,0,0,1,.342.466,1.5,1.5,0,0,1,.121.627,1.478,1.478,0,0,1-.2.773,1.682,1.682,0,0,1-.524.545,2.411,2.411,0,0,1-.756.322,3.748,3.748,0,0,1-.9.106A3.406,3.406,0,0,1,540.077,24.384Z" fill="#1e1e1e"/>
      <path d="M548.361,24.542a1.849,1.849,0,0,1-.9.188q-1.577,0-1.576-1.758V19.421h-1.032V18.6h1.032V17.136l.96-.31V18.6h1.512v.82h-1.512V22.8a1.4,1.4,0,0,0,.206.862.819.819,0,0,0,.679.257,1.01,1.01,0,0,0,.627-.2Z" fill="#1e1e1e"/>
      <path d="M498.371,38.134h-.023v3.627h-.961V33h.961v1.055h.023a2.273,2.273,0,0,1,2.074-1.2,2.2,2.2,0,0,1,1.811.806,3.34,3.34,0,0,1,.65,2.159,3.719,3.719,0,0,1-.732,2.411,2.44,2.44,0,0,1-2,.906A2.007,2.007,0,0,1,498.371,38.134Zm-.023-2.42v.838a1.782,1.782,0,0,0,.483,1.262,1.724,1.724,0,0,0,2.6-.149,3.063,3.063,0,0,0,.5-1.857,2.425,2.425,0,0,0-.463-1.571,1.533,1.533,0,0,0-1.254-.568,1.7,1.7,0,0,0-1.348.583A2.14,2.14,0,0,0,498.348,35.714Z" fill="#1e1e1e"/>
      <path d="M507.516,33.974a1.173,1.173,0,0,0-.726-.194,1.227,1.227,0,0,0-1.028.58,2.678,2.678,0,0,0-.414,1.582V39h-.96V33h.96v1.236h.024A2.1,2.1,0,0,1,506,33.25a1.432,1.432,0,0,1,.943-.355,1.579,1.579,0,0,1,.574.082Z" fill="#1e1e1e"/>
      <path d="M511.08,39.142a2.784,2.784,0,0,1-2.124-.841,3.117,3.117,0,0,1-.794-2.23,3.242,3.242,0,0,1,.826-2.361,2.969,2.969,0,0,1,2.233-.85,2.693,2.693,0,0,1,2.094.826,3.277,3.277,0,0,1,.753,2.291,3.222,3.222,0,0,1-.811,2.3A2.845,2.845,0,0,1,511.08,39.142Zm.07-5.473a1.829,1.829,0,0,0-1.465.63,2.589,2.589,0,0,0-.539,1.737,2.449,2.449,0,0,0,.545,1.682,1.854,1.854,0,0,0,1.459.615,1.756,1.756,0,0,0,1.433-.6,2.616,2.616,0,0,0,.5-1.716,2.667,2.667,0,0,0-.5-1.735A1.75,1.75,0,0,0,511.15,33.669Z" fill="#1e1e1e"/>
      <path d="M520.194,33l-2.39,6h-.944l-2.273-6h1.054l1.524,4.359a3.985,3.985,0,0,1,.211.838h.023a3.943,3.943,0,0,1,.188-.814L519.181,33Z" fill="#1e1e1e"/>
      <path d="M521.759,31.477a.61.61,0,0,1-.44-.175.594.594,0,0,1-.181-.446.615.615,0,0,1,.621-.627.622.622,0,0,1,.448.179.628.628,0,0,1,0,.888A.616.616,0,0,1,521.759,31.477ZM522.227,39h-.961V33h.961Z" fill="#1e1e1e"/>
      <path d="M523.709,38.784V37.753a2.839,2.839,0,0,0,1.728.58q1.266,0,1.266-.844a.733.733,0,0,0-.108-.407,1.1,1.1,0,0,0-.293-.3,2.235,2.235,0,0,0-.434-.231q-.249-.1-.536-.214a6.83,6.83,0,0,1-.7-.32,2.105,2.105,0,0,1-.5-.363,1.345,1.345,0,0,1-.305-.46,1.634,1.634,0,0,1-.1-.6,1.428,1.428,0,0,1,.193-.747,1.708,1.708,0,0,1,.516-.545,2.38,2.38,0,0,1,.735-.331,3.223,3.223,0,0,1,.852-.112,3.437,3.437,0,0,1,1.395.27V34.1a2.716,2.716,0,0,0-1.523-.433,1.788,1.788,0,0,0-.487.061,1.206,1.206,0,0,0-.372.173.8.8,0,0,0-.24.267.7.7,0,0,0-.085.343.815.815,0,0,0,.085.392.866.866,0,0,0,.249.281,1.88,1.88,0,0,0,.4.223c.157.067.334.139.534.217a7.445,7.445,0,0,1,.714.313,2.453,2.453,0,0,1,.539.364,1.408,1.408,0,0,1,.343.465,1.505,1.505,0,0,1,.12.627,1.479,1.479,0,0,1-.2.774,1.693,1.693,0,0,1-.524.545,2.411,2.411,0,0,1-.756.322,3.748,3.748,0,0,1-.9.106A3.406,3.406,0,0,1,523.709,38.784Z" fill="#1e1e1e"/>
      <path d="M529.54,31.477a.611.611,0,0,1-.44-.175.594.594,0,0,1-.181-.446.615.615,0,0,1,.621-.627.62.62,0,0,1,.448.179.625.625,0,0,1,0,.888A.614.614,0,0,1,529.54,31.477ZM530.009,39h-.961V33h.961Z" fill="#1e1e1e"/>
      <path d="M534.385,39.142a2.784,2.784,0,0,1-2.124-.841,3.113,3.113,0,0,1-.794-2.23,3.242,3.242,0,0,1,.826-2.361,2.968,2.968,0,0,1,2.232-.85,2.694,2.694,0,0,1,2.1.826,3.277,3.277,0,0,1,.753,2.291,3.222,3.222,0,0,1-.812,2.3A2.843,2.843,0,0,1,534.385,39.142Zm.07-5.473a1.828,1.828,0,0,0-1.465.63,2.589,2.589,0,0,0-.539,1.737A2.449,2.449,0,0,0,533,37.718a1.852,1.852,0,0,0,1.459.615,1.756,1.756,0,0,0,1.433-.6,2.616,2.616,0,0,0,.5-1.716,2.667,2.667,0,0,0-.5-1.735A1.75,1.75,0,0,0,534.455,33.669Z" fill="#1e1e1e"/>
      <path d="M543.835,39h-.961V35.579q0-1.91-1.395-1.91a1.513,1.513,0,0,0-1.192.542,2.01,2.01,0,0,0-.472,1.368V39h-.961V33h.961v1h.024a2.165,2.165,0,0,1,1.968-1.137,1.834,1.834,0,0,1,1.506.636,2.83,2.83,0,0,1,.522,1.837Z" fill="#1e1e1e"/>
      <path d="M546.059,31.477a.609.609,0,0,1-.439-.175.6.6,0,0,1-.182-.446.616.616,0,0,1,.621-.627.623.623,0,0,1,.449.179.628.628,0,0,1,0,.888A.616.616,0,0,1,546.059,31.477ZM546.528,39h-.961V33h.961Z" fill="#1e1e1e"/>
      <path d="M553.335,39h-.961V35.579q0-1.91-1.395-1.91a1.513,1.513,0,0,0-1.192.542,2.01,2.01,0,0,0-.472,1.368V39h-.961V33h.961v1h.024a2.165,2.165,0,0,1,1.968-1.137,1.834,1.834,0,0,1,1.506.636,2.83,2.83,0,0,1,.522,1.837Z" fill="#1e1e1e"/>
      <path d="M560.266,38.52q0,3.306-3.164,3.305a4.239,4.239,0,0,1-1.945-.422v-.961a4,4,0,0,0,1.934.563q2.214,0,2.215-2.356v-.656h-.024a2.427,2.427,0,0,1-3.864.349,3.2,3.2,0,0,1-.683-2.148,3.729,3.729,0,0,1,.736-2.431,2.455,2.455,0,0,1,2.012-.9,1.957,1.957,0,0,1,1.8.973h.024V33h.96Zm-.96-2.232V35.4a1.716,1.716,0,0,0-.484-1.224,1.591,1.591,0,0,0-1.2-.51,1.671,1.671,0,0,0-1.4.647,2.9,2.9,0,0,0-.5,1.814,2.48,2.48,0,0,0,.483,1.6,1.56,1.56,0,0,0,1.28.6,1.673,1.673,0,0,0,1.316-.574A2.14,2.14,0,0,0,559.306,36.288Z" fill="#1e1e1e"/>
    </g>
    <g>
      <path d="M508.638,71.45a4.935,4.935,0,0,1-2.321.492,3.744,3.744,0,0,1-2.871-1.154,4.261,4.261,0,0,1-1.078-3.03,4.464,4.464,0,0,1,1.213-3.258,4.117,4.117,0,0,1,3.076-1.242,4.927,4.927,0,0,1,1.981.346v1.049a4.019,4.019,0,0,0-1.993-.5,3.054,3.054,0,0,0-2.346.967,3.64,3.64,0,0,0-.9,2.584,3.467,3.467,0,0,0,.841,2.446,2.863,2.863,0,0,0,2.206.911,4.142,4.142,0,0,0,2.192-.562Z" fill="#1e1e1e"/>
      <path d="M513.107,66.774a1.174,1.174,0,0,0-.726-.193,1.228,1.228,0,0,0-1.029.58,2.683,2.683,0,0,0-.413,1.582V71.8h-.961v-6h.961v1.237h.024a2.089,2.089,0,0,1,.627-.988,1.429,1.429,0,0,1,.943-.354,1.562,1.562,0,0,1,.574.082Z" fill="#1e1e1e"/>
      <path d="M518.986,69.041H514.75a2.24,2.24,0,0,0,.539,1.547,1.856,1.856,0,0,0,1.418.545,2.942,2.942,0,0,0,1.863-.668v.9a3.486,3.486,0,0,1-2.092.574,2.538,2.538,0,0,1-2-.818,3.344,3.344,0,0,1-.726-2.3,3.279,3.279,0,0,1,.794-2.283,2.546,2.546,0,0,1,1.971-.881,2.255,2.255,0,0,1,1.823.761,3.181,3.181,0,0,1,.644,2.116ZM518,68.227a1.954,1.954,0,0,0-.4-1.3,1.364,1.364,0,0,0-1.1-.463,1.549,1.549,0,0,0-1.154.487,2.2,2.2,0,0,0-.586,1.271Z" fill="#1e1e1e"/>
      <path d="M524.685,71.8h-.961v-.937H523.7a2.013,2.013,0,0,1-1.846,1.078,1.97,1.97,0,0,1-1.4-.475,1.643,1.643,0,0,1-.507-1.26q0-1.681,1.981-1.957l1.8-.252q0-1.529-1.236-1.529a2.954,2.954,0,0,0-1.957.738v-.984a3.719,3.719,0,0,1,2.039-.562q2.115,0,2.115,2.238Zm-.961-3.035-1.447.2a2.364,2.364,0,0,0-1.008.331.958.958,0,0,0-.339.841.916.916,0,0,0,.313.718,1.213,1.213,0,0,0,.835.278,1.543,1.543,0,0,0,1.181-.5,1.792,1.792,0,0,0,.465-1.268Z" fill="#1e1e1e"/>
      <path d="M529.2,71.743a1.854,1.854,0,0,1-.9.187q-1.575,0-1.576-1.758v-3.55H525.7V65.8h1.031V64.336l.961-.31V65.8H529.2v.821h-1.512V70a1.408,1.408,0,0,0,.2.862.82.82,0,0,0,.68.258,1.011,1.011,0,0,0,.627-.2Z" fill="#1e1e1e"/>
      <path d="M535.206,69.041H530.97a2.24,2.24,0,0,0,.539,1.547,1.854,1.854,0,0,0,1.418.545,2.946,2.946,0,0,0,1.863-.668v.9a3.488,3.488,0,0,1-2.092.574,2.535,2.535,0,0,1-2-.818,3.344,3.344,0,0,1-.727-2.3,3.284,3.284,0,0,1,.794-2.283,2.55,2.55,0,0,1,1.972-.881,2.253,2.253,0,0,1,1.822.761,3.176,3.176,0,0,1,.645,2.116Zm-.984-.814a1.954,1.954,0,0,0-.4-1.3,1.367,1.367,0,0,0-1.1-.463,1.551,1.551,0,0,0-1.155.487,2.214,2.214,0,0,0-.586,1.271Z" fill="#1e1e1e"/>
      <path d="M540.907,71.549a3.759,3.759,0,0,1-.6,2.277,1.993,1.993,0,0,1-1.7.8,1.809,1.809,0,0,1-.8-.187v-.9a1.59,1.59,0,0,0,.821.264q1.313,0,1.312-2.1V65.8h.961Zm-.469-7.271A.608.608,0,0,1,540,64.1a.594.594,0,0,1-.182-.445.615.615,0,0,1,.621-.627.622.622,0,0,1,.449.178.6.6,0,0,1,.184.449.592.592,0,0,1-.184.439A.617.617,0,0,1,540.438,64.278Z" fill="#1e1e1e"/>
      <path d="M545.284,71.942a2.781,2.781,0,0,1-2.124-.841,3.117,3.117,0,0,1-.794-2.229,3.246,3.246,0,0,1,.826-2.362,2.972,2.972,0,0,1,2.233-.849,2.689,2.689,0,0,1,2.094.826,3.275,3.275,0,0,1,.753,2.291,3.225,3.225,0,0,1-.811,2.3A2.845,2.845,0,0,1,545.284,71.942Zm.07-5.473a1.826,1.826,0,0,0-1.464.63,2.584,2.584,0,0,0-.54,1.737,2.449,2.449,0,0,0,.545,1.682,1.854,1.854,0,0,0,1.459.615,1.758,1.758,0,0,0,1.433-.6,2.621,2.621,0,0,0,.5-1.717,2.662,2.662,0,0,0-.5-1.734A1.748,1.748,0,0,0,545.354,66.469Z" fill="#1e1e1e"/>
      <path d="M550.737,70.934h-.023V71.8h-.961V62.918h.961v3.938h.023a2.272,2.272,0,0,1,2.074-1.195,2.2,2.2,0,0,1,1.808.8,3.324,3.324,0,0,1,.653,2.159,3.724,3.724,0,0,1-.732,2.412,2.439,2.439,0,0,1-2,.9A1.973,1.973,0,0,1,550.737,70.934Zm-.023-2.42v.838a1.786,1.786,0,0,0,.483,1.263,1.725,1.725,0,0,0,2.6-.15,3.063,3.063,0,0,0,.5-1.857,2.414,2.414,0,0,0-.463-1.57,1.533,1.533,0,0,0-1.254-.569,1.706,1.706,0,0,0-1.348.583A2.145,2.145,0,0,0,550.714,68.514Z" fill="#1e1e1e"/>
      <path d="M497.28,86.342a2.784,2.784,0,0,1-2.124-.841,3.117,3.117,0,0,1-.794-2.23,3.248,3.248,0,0,1,.826-2.361,2.973,2.973,0,0,1,2.233-.85,2.689,2.689,0,0,1,2.094.827,3.273,3.273,0,0,1,.753,2.291,3.221,3.221,0,0,1-.811,2.3A2.842,2.842,0,0,1,497.28,86.342Zm.07-5.473a1.826,1.826,0,0,0-1.464.63,2.583,2.583,0,0,0-.539,1.737,2.448,2.448,0,0,0,.544,1.682,1.854,1.854,0,0,0,1.459.615,1.757,1.757,0,0,0,1.433-.6,2.621,2.621,0,0,0,.5-1.717,2.667,2.667,0,0,0-.5-1.735A1.749,1.749,0,0,0,497.35,80.869Z" fill="#1e1e1e"/>
      <path d="M506.629,86.2h-.961v-.949h-.024a1.973,1.973,0,0,1-1.851,1.09q-2.145,0-2.145-2.555V80.2h.955v3.434q0,1.9,1.453,1.9a1.473,1.473,0,0,0,1.158-.518,1.989,1.989,0,0,0,.454-1.357V80.2h.961Z" fill="#1e1e1e"/>
      <path d="M511.3,86.143a1.857,1.857,0,0,1-.9.187q-1.576,0-1.576-1.758V81.021H507.8V80.2h1.031V78.736l.961-.31V80.2H511.3v.82h-1.512V84.4a1.4,1.4,0,0,0,.205.862.821.821,0,0,0,.68.257,1.01,1.01,0,0,0,.627-.2Z" fill="#1e1e1e"/>
      <path d="M513.481,85.334h-.023v3.627H512.5V80.2h.961v1.055h.023a2.273,2.273,0,0,1,2.075-1.2,2.2,2.2,0,0,1,1.81.806,3.334,3.334,0,0,1,.65,2.159,3.719,3.719,0,0,1-.732,2.411,2.437,2.437,0,0,1-2,.906A2.008,2.008,0,0,1,513.481,85.334Zm-.023-2.42v.838a1.786,1.786,0,0,0,.483,1.263,1.725,1.725,0,0,0,2.6-.15,3.063,3.063,0,0,0,.5-1.857,2.419,2.419,0,0,0-.463-1.571,1.533,1.533,0,0,0-1.254-.568,1.7,1.7,0,0,0-1.347.583A2.141,2.141,0,0,0,513.458,82.914Z" fill="#1e1e1e"/>
      <path d="M524.377,86.2h-.961v-.949h-.024a1.973,1.973,0,0,1-1.851,1.09q-2.145,0-2.145-2.555V80.2h.955v3.434q0,1.9,1.454,1.9a1.473,1.473,0,0,0,1.157-.518,1.984,1.984,0,0,0,.454-1.357V80.2h.961Z" fill="#1e1e1e"/>
      <path d="M529.051,86.143a1.857,1.857,0,0,1-.9.187q-1.577,0-1.576-1.758V81.021h-1.031V80.2h1.031V78.736l.961-.31V80.2h1.512v.82h-1.512V84.4a1.4,1.4,0,0,0,.205.862.821.821,0,0,0,.68.257,1.01,1.01,0,0,0,.627-.2Z" fill="#1e1e1e"/>
      <path d="M533.258,85.984V84.953a2.839,2.839,0,0,0,1.728.58q1.266,0,1.266-.844a.725.725,0,0,0-.109-.407,1.083,1.083,0,0,0-.293-.3,2.225,2.225,0,0,0-.433-.231q-.249-.1-.536-.214a7.061,7.061,0,0,1-.7-.319,2.1,2.1,0,0,1-.5-.364,1.336,1.336,0,0,1-.305-.46,1.634,1.634,0,0,1-.1-.6,1.434,1.434,0,0,1,.194-.747,1.716,1.716,0,0,1,.515-.545,2.386,2.386,0,0,1,.736-.331,3.265,3.265,0,0,1,.852-.112,3.437,3.437,0,0,1,1.395.27V81.3a2.72,2.72,0,0,0-1.524-.434,1.784,1.784,0,0,0-.486.062,1.183,1.183,0,0,0-.372.172.8.8,0,0,0-.24.267.7.7,0,0,0-.085.343.815.815,0,0,0,.085.392.847.847,0,0,0,.249.282,1.879,1.879,0,0,0,.4.222q.234.1.533.217a7.352,7.352,0,0,1,.715.314,2.416,2.416,0,0,1,.539.363,1.412,1.412,0,0,1,.343.466,1.5,1.5,0,0,1,.12.627,1.475,1.475,0,0,1-.2.773,1.685,1.685,0,0,1-.525.545,2.373,2.373,0,0,1-.755.322,3.7,3.7,0,0,1-.9.106A3.394,3.394,0,0,1,533.258,85.984Z" fill="#1e1e1e"/>
      <path d="M541.542,86.143a1.857,1.857,0,0,1-.9.187q-1.575,0-1.576-1.758V81.021h-1.031V80.2h1.031V78.736l.961-.31V80.2h1.512v.82H540.03V84.4a1.4,1.4,0,0,0,.205.862.821.821,0,0,0,.68.257,1.01,1.01,0,0,0,.627-.2Z" fill="#1e1e1e"/>
      <path d="M547.223,86.2h-.961v-.937h-.024a2.013,2.013,0,0,1-1.846,1.078,1.97,1.97,0,0,1-1.4-.475,1.643,1.643,0,0,1-.507-1.26q0-1.681,1.981-1.957l1.8-.252q0-1.528-1.237-1.529a2.955,2.955,0,0,0-1.957.738v-.984a3.72,3.72,0,0,1,2.039-.563q2.115,0,2.116,2.239Zm-.961-3.035-1.448.2a2.364,2.364,0,0,0-1.008.331.956.956,0,0,0-.339.841.916.916,0,0,0,.313.718,1.213,1.213,0,0,0,.835.278,1.543,1.543,0,0,0,1.181-.5,1.792,1.792,0,0,0,.466-1.268Z" fill="#1e1e1e"/>
      <path d="M551.739,86.143a1.85,1.85,0,0,1-.9.187q-1.576,0-1.577-1.758V81.021h-1.031V80.2h1.031V78.736l.961-.31V80.2h1.512v.82h-1.512V84.4a1.408,1.408,0,0,0,.205.862.822.822,0,0,0,.68.257,1.01,1.01,0,0,0,.627-.2Z" fill="#1e1e1e"/>
      <path d="M557.849,86.2h-.96v-.949h-.024a1.974,1.974,0,0,1-1.851,1.09q-2.145,0-2.145-2.555V80.2h.955v3.434q0,1.9,1.453,1.9a1.47,1.47,0,0,0,1.157-.518,1.985,1.985,0,0,0,.455-1.357V80.2h.96Z" fill="#1e1e1e"/>
      <path d="M559.371,85.984V84.953a2.841,2.841,0,0,0,1.728.58q1.266,0,1.266-.844a.733.733,0,0,0-.108-.407,1.1,1.1,0,0,0-.293-.3,2.235,2.235,0,0,0-.434-.231q-.249-.1-.536-.214a7.061,7.061,0,0,1-.7-.319,2.135,2.135,0,0,1-.5-.364,1.35,1.35,0,0,1-.3-.46,1.634,1.634,0,0,1-.1-.6,1.433,1.433,0,0,1,.193-.747,1.708,1.708,0,0,1,.516-.545,2.38,2.38,0,0,1,.735-.331,3.273,3.273,0,0,1,.853-.112,3.436,3.436,0,0,1,1.394.27V81.3a2.717,2.717,0,0,0-1.523-.434,1.787,1.787,0,0,0-.487.062,1.2,1.2,0,0,0-.372.172.821.821,0,0,0-.24.267.7.7,0,0,0-.085.343.815.815,0,0,0,.085.392.869.869,0,0,0,.249.282,1.879,1.879,0,0,0,.4.222c.157.067.334.139.534.217a7.461,7.461,0,0,1,.715.314,2.463,2.463,0,0,1,.539.363,1.423,1.423,0,0,1,.342.466,1.5,1.5,0,0,1,.12.627,1.475,1.475,0,0,1-.2.773,1.682,1.682,0,0,1-.524.545,2.388,2.388,0,0,1-.756.322,3.7,3.7,0,0,1-.9.106A3.394,3.394,0,0,1,559.371,85.984Z" fill="#1e1e1e"/>
      <path d="M515.863,95.574a1.173,1.173,0,0,0-.726-.194,1.229,1.229,0,0,0-1.029.58,2.685,2.685,0,0,0-.413,1.582V100.6h-.961v-6h.961v1.236h.024a2.081,2.081,0,0,1,.627-.987,1.429,1.429,0,0,1,.943-.354,1.562,1.562,0,0,1,.574.082Z" fill="#1e1e1e"/>
      <path d="M521.742,97.841h-4.236a2.24,2.24,0,0,0,.539,1.547,1.859,1.859,0,0,0,1.418.545,2.948,2.948,0,0,0,1.863-.668v.9a3.482,3.482,0,0,1-2.092.575,2.538,2.538,0,0,1-2-.818,3.347,3.347,0,0,1-.726-2.3,3.278,3.278,0,0,1,.794-2.282,2.544,2.544,0,0,1,1.971-.882,2.258,2.258,0,0,1,1.823.762,3.18,3.18,0,0,1,.644,2.115Zm-.984-.814a1.953,1.953,0,0,0-.4-1.3,1.365,1.365,0,0,0-1.1-.463,1.555,1.555,0,0,0-1.155.486,2.217,2.217,0,0,0-.586,1.272Z" fill="#1e1e1e"/>
      <path d="M527.32,100.326a3.125,3.125,0,0,1-1.64.416,2.72,2.72,0,0,1-2.072-.835,3.029,3.029,0,0,1-.788-2.165,3.322,3.322,0,0,1,.85-2.382,2.97,2.97,0,0,1,2.267-.9,3.16,3.16,0,0,1,1.395.293v.985a2.44,2.44,0,0,0-1.43-.469,1.935,1.935,0,0,0-1.509.659,2.506,2.506,0,0,0-.588,1.732,2.383,2.383,0,0,0,.553,1.664,1.91,1.91,0,0,0,1.486.609,2.411,2.411,0,0,0,1.476-.521Z" fill="#1e1e1e"/>
      <path d="M531.138,100.742a2.784,2.784,0,0,1-2.124-.841,3.113,3.113,0,0,1-.794-2.23,3.243,3.243,0,0,1,.826-2.361,2.972,2.972,0,0,1,2.232-.85,2.691,2.691,0,0,1,2.1.827,3.273,3.273,0,0,1,.753,2.291,3.221,3.221,0,0,1-.812,2.3A2.84,2.84,0,0,1,531.138,100.742Zm.07-5.473a1.828,1.828,0,0,0-1.465.63,2.589,2.589,0,0,0-.539,1.737,2.449,2.449,0,0,0,.545,1.682,1.851,1.851,0,0,0,1.459.615,1.756,1.756,0,0,0,1.432-.6,2.621,2.621,0,0,0,.5-1.717,2.667,2.667,0,0,0-.5-1.735A1.748,1.748,0,0,0,531.208,95.269Z" fill="#1e1e1e"/>
      <path d="M538.736,95.574a1.173,1.173,0,0,0-.726-.194,1.229,1.229,0,0,0-1.029.58,2.685,2.685,0,0,0-.413,1.582V100.6h-.961v-6h.961v1.236h.024a2.081,2.081,0,0,1,.627-.987,1.429,1.429,0,0,1,.943-.354,1.562,1.562,0,0,1,.574.082Z" fill="#1e1e1e"/>
      <path d="M544.919,100.6h-.961v-1.02h-.024a2.217,2.217,0,0,1-2.062,1.161,2.242,2.242,0,0,1-1.808-.806,3.306,3.306,0,0,1-.676-2.194,3.6,3.6,0,0,1,.75-2.385,2.473,2.473,0,0,1,2-.9,1.923,1.923,0,0,1,1.8.973h.024V91.718h.961Zm-.961-2.713V97a1.714,1.714,0,0,0-.481-1.23,1.61,1.61,0,0,0-1.218-.5,1.659,1.659,0,0,0-1.383.645,2.822,2.822,0,0,0-.5,1.781,2.54,2.54,0,0,0,.483,1.637,1.58,1.58,0,0,0,1.3.6,1.641,1.641,0,0,0,1.3-.58A2.162,2.162,0,0,0,543.958,97.888Z" fill="#1e1e1e"/>
    </g>
    <g>
      <path d="M635.479,19.506V22.4h-1.892V14h2.965q3.175,0,3.175,2.678a2.567,2.567,0,0,1-.911,2.048,3.606,3.606,0,0,1-2.434.782Zm0-4.054v2.619h.744q1.512,0,1.512-1.324,0-1.3-1.512-1.295Z" fill="#1e1e1e"/>
      <path d="M644.6,18.071a1.611,1.611,0,0,0-.78-.182,1.124,1.124,0,0,0-.943.442,1.93,1.93,0,0,0-.34,1.205V22.4h-1.852v-6h1.852v1.113h.023a1.6,1.6,0,0,1,1.583-1.219,1.191,1.191,0,0,1,.457.071Z" fill="#1e1e1e"/>
      <path d="M648.4,22.547a3.222,3.222,0,0,1-2.358-.841,3.048,3.048,0,0,1-.859-2.282,3.048,3.048,0,0,1,.891-2.329,3.369,3.369,0,0,1,2.408-.841,3.189,3.189,0,0,1,2.344.841,2.992,2.992,0,0,1,.85,2.224,3.172,3.172,0,0,1-.876,2.361A3.262,3.262,0,0,1,648.4,22.547Zm.047-4.875a1.236,1.236,0,0,0-1.019.451,1.987,1.987,0,0,0-.364,1.278q0,1.728,1.395,1.728,1.331,0,1.33-1.775Q649.787,17.673,648.445,17.672Z" fill="#1e1e1e"/>
      <path d="M658.427,16.4l-2.233,6h-2.109l-2.127-6h1.98l1.043,3.7a5.384,5.384,0,0,1,.205,1.066h.024a5.946,5.946,0,0,1,.217-1.031l1.066-3.732Z" fill="#1e1e1e"/>
      <path d="M660.188,15.452a1.079,1.079,0,0,1-.767-.279.9.9,0,0,1-.3-.682.866.866,0,0,1,.3-.68,1.252,1.252,0,0,1,1.538,0,.87.87,0,0,1,.3.68.894.894,0,0,1-.3.691A1.1,1.1,0,0,1,660.188,15.452ZM661.1,22.4h-1.851v-6H661.1Z" fill="#1e1e1e"/>
      <path d="M662.346,22.243v-1.5a3.954,3.954,0,0,0,.911.41,3.012,3.012,0,0,0,.858.135,1.835,1.835,0,0,0,.776-.135.436.436,0,0,0,.285-.41.378.378,0,0,0-.129-.293,1.2,1.2,0,0,0-.331-.2,3.741,3.741,0,0,0-.443-.159c-.16-.047-.314-.1-.463-.158a4.368,4.368,0,0,1-.629-.29,1.841,1.841,0,0,1-.458-.36,1.427,1.427,0,0,1-.281-.475,1.906,1.906,0,0,1-.1-.639,1.65,1.65,0,0,1,.219-.867,1.8,1.8,0,0,1,.586-.594,2.658,2.658,0,0,1,.838-.34,4.334,4.334,0,0,1,.982-.109,5.443,5.443,0,0,1,.808.062,5.9,5.9,0,0,1,.809.179v1.429a2.951,2.951,0,0,0-.753-.307,3.148,3.148,0,0,0-.788-.1,1.784,1.784,0,0,0-.343.032,1.155,1.155,0,0,0-.284.094.529.529,0,0,0-.194.158.372.372,0,0,0-.07.22.4.4,0,0,0,.106.281.9.9,0,0,0,.275.2,2.655,2.655,0,0,0,.378.153c.139.045.276.091.413.137a5.306,5.306,0,0,1,.668.282,2.126,2.126,0,0,1,.513.357,1.41,1.41,0,0,1,.328.481,1.925,1.925,0,0,1-.117,1.567,1.858,1.858,0,0,1-.616.615,2.786,2.786,0,0,1-.884.346,4.925,4.925,0,0,1-1.04.108A5.359,5.359,0,0,1,662.346,22.243Z" fill="#1e1e1e"/>
      <path d="M668.988,15.452a1.079,1.079,0,0,1-.767-.279.893.893,0,0,1-.3-.682.863.863,0,0,1,.3-.68,1.252,1.252,0,0,1,1.538,0,.87.87,0,0,1,.3.68.894.894,0,0,1-.3.691A1.1,1.1,0,0,1,668.988,15.452ZM669.9,22.4h-1.851v-6H669.9Z" fill="#1e1e1e"/>
      <path d="M674.293,22.547a3.226,3.226,0,0,1-2.359-.841,3.048,3.048,0,0,1-.858-2.282,3.048,3.048,0,0,1,.891-2.329,3.365,3.365,0,0,1,2.408-.841,3.19,3.19,0,0,1,2.344.841,2.991,2.991,0,0,1,.849,2.224,3.172,3.172,0,0,1-.876,2.361A3.262,3.262,0,0,1,674.293,22.547Zm.047-4.875a1.237,1.237,0,0,0-1.02.451,1.993,1.993,0,0,0-.363,1.278q0,1.728,1.394,1.728,1.331,0,1.33-1.775Q675.681,17.673,674.34,17.672Z" fill="#1e1e1e"/>
      <path d="M684.556,22.4H682.71V19.067q0-1.395-1-1.395a.987.987,0,0,0-.791.369,1.41,1.41,0,0,0-.311.938V22.4h-1.851v-6h1.851v.949h.024a2.122,2.122,0,0,1,1.927-1.1q1.992,0,1.993,2.473Z" fill="#1e1e1e"/>
      <path d="M686.941,15.452a1.079,1.079,0,0,1-.767-.279.893.893,0,0,1-.3-.682.863.863,0,0,1,.3-.68,1.252,1.252,0,0,1,1.538,0,.87.87,0,0,1,.3.68.894.894,0,0,1-.3.691A1.1,1.1,0,0,1,686.941,15.452Zm.914,6.949H686v-6h1.851Z" fill="#1e1e1e"/>
      <path d="M695.192,22.4h-1.845V19.067q0-1.395-1-1.395a.989.989,0,0,0-.791.369,1.409,1.409,0,0,0-.31.938V22.4H689.4v-6h1.852v.949h.023a2.124,2.124,0,0,1,1.928-1.1q1.992,0,1.992,2.473Z" fill="#1e1e1e"/>
      <path d="M702.588,21.715a3.4,3.4,0,0,1-.967,2.587,3.916,3.916,0,0,1-2.8.917,4.435,4.435,0,0,1-1.922-.346V23.315a3.685,3.685,0,0,0,1.869.539,2.016,2.016,0,0,0,1.454-.495,1.779,1.779,0,0,0,.515-1.345v-.475h-.023a2.068,2.068,0,0,1-1.869,1.008,2.25,2.25,0,0,1-1.823-.808,3.28,3.28,0,0,1-.673-2.168,3.651,3.651,0,0,1,.75-2.42,2.447,2.447,0,0,1,1.974-.9,1.824,1.824,0,0,1,1.641.844h.023v-.7h1.852Zm-1.828-2.2v-.475a1.458,1.458,0,0,0-.337-.969,1.09,1.09,0,0,0-.876-.4,1.131,1.131,0,0,0-.967.481,2.26,2.26,0,0,0-.352,1.353,1.913,1.913,0,0,0,.334,1.187,1.089,1.089,0,0,0,.914.436,1.132,1.132,0,0,0,.929-.442A1.817,1.817,0,0,0,700.76,19.518Z" fill="#1e1e1e"/>
      <path d="M707.281,19.846h-3.2v-1.3h3.2Z" fill="#1e1e1e"/>
      <path d="M712.665,18.071a1.609,1.609,0,0,0-.779-.182,1.126,1.126,0,0,0-.944.442,1.936,1.936,0,0,0-.34,1.205V22.4h-1.851v-6H710.6v1.113h.024a1.6,1.6,0,0,1,1.582-1.219,1.188,1.188,0,0,1,.457.071Z" fill="#1e1e1e"/>
      <path d="M718.993,19.928h-3.914q.093,1.306,1.646,1.307a3.211,3.211,0,0,0,1.741-.469V22.1a4.573,4.573,0,0,1-2.162.445,2.792,2.792,0,0,1-3.059-3.052,3.212,3.212,0,0,1,.867-2.368,2.889,2.889,0,0,1,2.133-.873,2.62,2.62,0,0,1,2.03.78,3,3,0,0,1,.718,2.115Zm-1.717-1.137q0-1.289-1.043-1.289a.993.993,0,0,0-.77.37,1.673,1.673,0,0,0-.4.919Z" fill="#1e1e1e"/>
      <path d="M726.068,25.161h-1.851V21.575h-.024a2.057,2.057,0,0,1-1.845.972,2.3,2.3,0,0,1-1.82-.788,3.252,3.252,0,0,1-.688-2.212,3.593,3.593,0,0,1,.756-2.4,2.45,2.45,0,0,1,1.968-.9,1.786,1.786,0,0,1,1.629.844h.024v-.7h1.851Zm-1.816-5.625v-.481a1.459,1.459,0,0,0-.34-.984,1.1,1.1,0,0,0-.873-.4,1.129,1.129,0,0,0-.967.484,2.24,2.24,0,0,0-.351,1.339,1.894,1.894,0,0,0,.342,1.2,1.087,1.087,0,0,0,.894.433,1.146,1.146,0,0,0,.94-.439A1.779,1.779,0,0,0,724.252,19.536Z" fill="#1e1e1e"/>
      <path d="M733.328,22.4h-1.846v-.914h-.029a2.093,2.093,0,0,1-1.834,1.06q-2.087,0-2.086-2.525V16.4h1.846v3.457q0,1.272,1.008,1.271a1,1,0,0,0,.8-.348,1.4,1.4,0,0,0,.3-.947V16.4h1.846Z" fill="#1e1e1e"/>
      <path d="M740.284,19.928H736.37q.093,1.306,1.646,1.307a3.211,3.211,0,0,0,1.741-.469V22.1a4.573,4.573,0,0,1-2.162.445,2.792,2.792,0,0,1-3.059-3.052,3.212,3.212,0,0,1,.867-2.368,2.889,2.889,0,0,1,2.133-.873,2.62,2.62,0,0,1,2.03.78,3,3,0,0,1,.718,2.115Zm-1.717-1.137q0-1.289-1.043-1.289a.993.993,0,0,0-.77.37,1.673,1.673,0,0,0-.4.919Z" fill="#1e1e1e"/>
      <path d="M741.139,22.243v-1.5a3.954,3.954,0,0,0,.911.41,3.012,3.012,0,0,0,.858.135,1.835,1.835,0,0,0,.776-.135.436.436,0,0,0,.285-.41.378.378,0,0,0-.129-.293,1.2,1.2,0,0,0-.331-.2,3.741,3.741,0,0,0-.443-.159c-.16-.047-.314-.1-.463-.158a4.434,4.434,0,0,1-.63-.29,1.853,1.853,0,0,1-.457-.36,1.427,1.427,0,0,1-.281-.475,1.906,1.906,0,0,1-.1-.639,1.65,1.65,0,0,1,.219-.867,1.8,1.8,0,0,1,.586-.594,2.658,2.658,0,0,1,.838-.34,4.334,4.334,0,0,1,.982-.109,5.443,5.443,0,0,1,.808.062,5.9,5.9,0,0,1,.809.179v1.429a2.951,2.951,0,0,0-.753-.307,3.148,3.148,0,0,0-.788-.1,1.784,1.784,0,0,0-.343.032,1.155,1.155,0,0,0-.284.094.529.529,0,0,0-.194.158.372.372,0,0,0-.07.22.4.4,0,0,0,.106.281.9.9,0,0,0,.275.2,2.655,2.655,0,0,0,.378.153c.139.045.276.091.413.137a5.306,5.306,0,0,1,.668.282,2.126,2.126,0,0,1,.513.357,1.41,1.41,0,0,1,.328.481,1.925,1.925,0,0,1-.117,1.567,1.858,1.858,0,0,1-.616.615,2.786,2.786,0,0,1-.884.346,4.925,4.925,0,0,1-1.04.108A5.359,5.359,0,0,1,741.139,22.243Z" fill="#1e1e1e"/>
      <path d="M750.411,22.331a2.745,2.745,0,0,1-1.236.216q-1.957,0-1.957-2.033V17.766h-.973V16.4h.973V15.106l1.845-.527V16.4h1.348v1.365h-1.348v2.426q0,.938.744.937a1.246,1.246,0,0,0,.6-.17Z" fill="#1e1e1e"/>
      <path d="M639.276,39.56h-1.851V35.975H637.4a2.057,2.057,0,0,1-1.845.972,2.3,2.3,0,0,1-1.82-.788,3.254,3.254,0,0,1-.688-2.212,3.593,3.593,0,0,1,.756-2.4,2.45,2.45,0,0,1,1.968-.9,1.784,1.784,0,0,1,1.629.844h.024v-.7h1.851Zm-1.816-5.625v-.48a1.459,1.459,0,0,0-.34-.984,1.1,1.1,0,0,0-.873-.4,1.13,1.13,0,0,0-.967.484,2.239,2.239,0,0,0-.351,1.338,1.9,1.9,0,0,0,.342,1.2,1.087,1.087,0,0,0,.894.433,1.146,1.146,0,0,0,.94-.439A1.78,1.78,0,0,0,637.46,33.935Z" fill="#1e1e1e"/>
      <path d="M646.536,36.8H644.69v-.914h-.029a2.093,2.093,0,0,1-1.834,1.06q-2.086,0-2.086-2.525V30.8h1.846v3.457q0,1.27,1.008,1.271a1,1,0,0,0,.8-.348,1.4,1.4,0,0,0,.3-.947V30.8h1.846Z" fill="#1e1e1e"/>
      <path d="M653.491,34.328h-3.914q.094,1.306,1.646,1.307a3.22,3.22,0,0,0,1.741-.469V36.5a4.573,4.573,0,0,1-2.162.445,2.792,2.792,0,0,1-3.059-3.053,3.211,3.211,0,0,1,.867-2.367,2.889,2.889,0,0,1,2.133-.873,2.62,2.62,0,0,1,2.03.78,3,3,0,0,1,.718,2.115Zm-1.717-1.137q0-1.289-1.043-1.289a1,1,0,0,0-.77.369,1.679,1.679,0,0,0-.4.92Z" fill="#1e1e1e"/>
      <path d="M660.378,36.8h-1.846v-.914H658.5a2.1,2.1,0,0,1-1.835,1.06q-2.087,0-2.086-2.525V30.8h1.846v3.457q0,1.27,1.007,1.271a1,1,0,0,0,.8-.348,1.409,1.409,0,0,0,.3-.947V30.8h1.846Z" fill="#1e1e1e"/>
      <path d="M667.332,34.328h-3.914q.093,1.306,1.646,1.307a3.222,3.222,0,0,0,1.741-.469V36.5a4.574,4.574,0,0,1-2.163.445,2.792,2.792,0,0,1-3.058-3.053,3.211,3.211,0,0,1,.867-2.367,2.889,2.889,0,0,1,2.133-.873,2.62,2.62,0,0,1,2.03.78,3,3,0,0,1,.718,2.115Zm-1.717-1.137q0-1.289-1.043-1.289a.994.994,0,0,0-.77.369,1.679,1.679,0,0,0-.4.92Z" fill="#1e1e1e"/>
    </g>
    <g>
      <path d="M637.091,66.267a3.814,3.814,0,0,1-.783,2.584,2.841,2.841,0,0,1-2.264.9,3.229,3.229,0,0,1-1.225-.228V67.744a1.759,1.759,0,0,0,1.09.369q1.295,0,1.295-1.922V61.2h1.887Z" fill="#1e1e1e"/>
      <path d="M641.525,69.747a3.226,3.226,0,0,1-2.358-.84A3.476,3.476,0,0,1,639.2,64.3a3.368,3.368,0,0,1,2.408-.84,3.188,3.188,0,0,1,2.344.84,2.992,2.992,0,0,1,.85,2.224,3.172,3.172,0,0,1-.876,2.361A3.262,3.262,0,0,1,641.525,69.747Zm.047-4.875a1.234,1.234,0,0,0-1.019.452,1.982,1.982,0,0,0-.364,1.277q0,1.728,1.395,1.729,1.331,0,1.33-1.776Q642.914,64.873,641.572,64.872Z" fill="#1e1e1e"/>
      <path d="M647.869,68.9h-.023v.7h-1.852V60.718h1.852V64.5h.023a2.2,2.2,0,0,1,1.951-1.048,2.14,2.14,0,0,1,1.787.8,3.438,3.438,0,0,1,.627,2.18,3.721,3.721,0,0,1-.732,2.408,2.384,2.384,0,0,1-1.957.908A1.891,1.891,0,0,1,647.869,68.9Zm-.053-2.532v.616a1.409,1.409,0,0,0,.334.961,1.087,1.087,0,0,0,.856.381,1.135,1.135,0,0,0,.981-.49,2.356,2.356,0,0,0,.349-1.385,1.881,1.881,0,0,0-.32-1.164,1.076,1.076,0,0,0-.911-.419,1.178,1.178,0,0,0-.923.417A1.578,1.578,0,0,0,647.816,66.372Z" fill="#1e1e1e"/>
      <path d="M660.478,69.747a3.911,3.911,0,0,1-2.941-1.174,4.219,4.219,0,0,1-1.137-3.062,4.516,4.516,0,0,1,1.155-3.222,3.993,3.993,0,0,1,3.058-1.231,3.814,3.814,0,0,1,2.909,1.178,4.338,4.338,0,0,1,1.111,3.1,4.447,4.447,0,0,1-1.152,3.194A3.952,3.952,0,0,1,660.478,69.747Zm.082-7.06a1.906,1.906,0,0,0-1.582.747,3.119,3.119,0,0,0-.586,1.978,3.059,3.059,0,0,0,.586,1.974,1.878,1.878,0,0,0,1.536.727,1.9,1.9,0,0,0,1.552-.706,3.023,3.023,0,0,0,.574-1.96,3.276,3.276,0,0,0-.556-2.033A1.814,1.814,0,0,0,660.56,62.687Z" fill="#1e1e1e"/>
      <path d="M671.62,69.6h-1.846v-.914h-.029a2.093,2.093,0,0,1-1.834,1.06q-2.087,0-2.086-2.525V63.6h1.846v3.457q0,1.272,1.008,1.272a1,1,0,0,0,.8-.349,1.4,1.4,0,0,0,.3-.946V63.6h1.846Z" fill="#1e1e1e"/>
      <path d="M676.746,69.531a2.745,2.745,0,0,1-1.236.216q-1.957,0-1.957-2.033V64.966h-.973V63.6h.973v-1.3l1.845-.527V63.6h1.348v1.365H675.4v2.426q0,.938.744.938a1.257,1.257,0,0,0,.6-.17Z" fill="#1e1e1e"/>
      <path d="M679.787,68.9h-.023v3.457h-1.852V63.6h1.852v.9h.023a2.357,2.357,0,0,1,3.729-.249,3.407,3.407,0,0,1,.636,2.177,3.691,3.691,0,0,1-.741,2.408,2.415,2.415,0,0,1-1.972.908A1.869,1.869,0,0,1,679.787,68.9Zm-.053-2.461v.48a1.533,1.533,0,0,0,.328,1.014,1.069,1.069,0,0,0,.862.393,1.135,1.135,0,0,0,.981-.49,2.356,2.356,0,0,0,.349-1.385q0-1.582-1.231-1.583a1.154,1.154,0,0,0-.928.431A1.714,1.714,0,0,0,679.734,66.443Z" fill="#1e1e1e"/>
      <path d="M691.083,69.6h-1.846v-.914h-.029a2.093,2.093,0,0,1-1.834,1.06q-2.087,0-2.086-2.525V63.6h1.846v3.457q0,1.272,1.007,1.272a1,1,0,0,0,.8-.349,1.4,1.4,0,0,0,.3-.946V63.6h1.846Z" fill="#1e1e1e"/>
      <path d="M696.21,69.531a2.75,2.75,0,0,1-1.237.216q-1.956,0-1.957-2.033V64.966h-.972V63.6h.972v-1.3l1.846-.527V63.6h1.348v1.365h-1.348v2.426q0,.938.744.938a1.257,1.257,0,0,0,.6-.17Z" fill="#1e1e1e"/>
      <path d="M633.2,83.679V81.8a3.6,3.6,0,0,0,1.107.641,3.554,3.554,0,0,0,1.208.214,2.68,2.68,0,0,0,.624-.064,1.471,1.471,0,0,0,.445-.179.769.769,0,0,0,.266-.27.664.664,0,0,0,.088-.336.733.733,0,0,0-.14-.44,1.511,1.511,0,0,0-.384-.357,4.018,4.018,0,0,0-.577-.317c-.223-.1-.463-.2-.721-.31a3.7,3.7,0,0,1-1.468-1,2.19,2.19,0,0,1-.483-1.43,2.278,2.278,0,0,1,.264-1.128,2.238,2.238,0,0,1,.717-.776A3.236,3.236,0,0,1,635.2,75.6a5.445,5.445,0,0,1,1.266-.143,7.584,7.584,0,0,1,1.163.079,4.606,4.606,0,0,1,.934.243v1.752a2.911,2.911,0,0,0-.46-.258,3.672,3.672,0,0,0-.512-.184,3.985,3.985,0,0,0-.525-.109,3.788,3.788,0,0,0-.5-.035,2.583,2.583,0,0,0-.586.062,1.476,1.476,0,0,0-.445.173.858.858,0,0,0-.281.266.63.63,0,0,0-.1.349.67.67,0,0,0,.111.378,1.283,1.283,0,0,0,.317.316,3.38,3.38,0,0,0,.5.293c.2.1.416.194.662.3a7.411,7.411,0,0,1,.9.448,3.226,3.226,0,0,1,.689.536,2.093,2.093,0,0,1,.439.683,2.718,2.718,0,0,1-.114,2.074,2.167,2.167,0,0,1-.724.774,3.118,3.118,0,0,1-1.063.424,6.139,6.139,0,0,1-1.28.129,7.136,7.136,0,0,1-1.316-.117A3.979,3.979,0,0,1,633.2,83.679Z" fill="#1e1e1e"/>
      <path d="M643.578,83.931a2.745,2.745,0,0,1-1.236.216q-1.957,0-1.957-2.033V79.366h-.973V78h.973v-1.3l1.845-.527V78h1.348v1.365H642.23v2.426q0,.938.744.937a1.256,1.256,0,0,0,.6-.169Z" fill="#1e1e1e"/>
      <path d="M649.741,84h-1.752V83.14h-.023a1.957,1.957,0,0,1-1.787,1.007,1.87,1.87,0,0,1-1.374-.5,1.773,1.773,0,0,1-.5-1.321q0-1.746,2.068-2.016L648,80.1q0-.986-1.067-.985a3.642,3.642,0,0,0-2.039.639V78.358a4.614,4.614,0,0,1,1.058-.351,5.532,5.532,0,0,1,1.222-.153,2.266,2.266,0,0,1,2.566,2.561ZM648,81.563v-.4l-1.09.141q-.9.117-.9.814a.675.675,0,0,0,.219.519.845.845,0,0,0,.6.2,1.1,1.1,0,0,0,.85-.36A1.307,1.307,0,0,0,648,81.563Z" fill="#1e1e1e"/>
      <path d="M654.745,83.931a2.745,2.745,0,0,1-1.236.216q-1.958,0-1.957-2.033V79.366h-.973V78h.973v-1.3l1.845-.527V78h1.348v1.365H653.4v2.426q0,.938.744.937a1.256,1.256,0,0,0,.6-.169Z" fill="#1e1e1e"/>
      <path d="M661.583,84h-1.846v-.914h-.029a2.093,2.093,0,0,1-1.834,1.06q-2.088,0-2.087-2.525V78h1.847v3.457q0,1.272,1.007,1.271a1,1,0,0,0,.8-.348,1.4,1.4,0,0,0,.3-.946V78h1.846Z" fill="#1e1e1e"/>
      <path d="M662.848,83.843v-1.5a3.954,3.954,0,0,0,.911.41,3.012,3.012,0,0,0,.858.135,1.835,1.835,0,0,0,.776-.135.436.436,0,0,0,.285-.41.38.38,0,0,0-.129-.293,1.2,1.2,0,0,0-.331-.2,3.741,3.741,0,0,0-.443-.159q-.24-.069-.463-.158a4.434,4.434,0,0,1-.63-.29,1.812,1.812,0,0,1-.457-.36,1.427,1.427,0,0,1-.281-.475,1.9,1.9,0,0,1-.1-.638,1.653,1.653,0,0,1,.219-.868,1.8,1.8,0,0,1,.586-.594,2.658,2.658,0,0,1,.838-.34,4.392,4.392,0,0,1,.982-.109,5.443,5.443,0,0,1,.808.062,6.052,6.052,0,0,1,.809.179v1.429a2.951,2.951,0,0,0-.753-.307,3.154,3.154,0,0,0-.788-.1,1.784,1.784,0,0,0-.343.032,1.141,1.141,0,0,0-.284.094.529.529,0,0,0-.194.158.365.365,0,0,0-.07.22.4.4,0,0,0,.106.281.9.9,0,0,0,.275.2,2.655,2.655,0,0,0,.378.153c.139.045.276.091.413.138a5.164,5.164,0,0,1,.668.281,2.126,2.126,0,0,1,.513.357,1.41,1.41,0,0,1,.328.481,1.925,1.925,0,0,1-.117,1.567,1.858,1.858,0,0,1-.616.615,2.786,2.786,0,0,1-.884.346,4.927,4.927,0,0,1-1.041.108A5.357,5.357,0,0,1,662.848,83.843Z" fill="#1e1e1e"/>
      <path d="M675.457,83.931a2.748,2.748,0,0,1-1.236.216q-1.957,0-1.957-2.033V79.366h-.973V78h.973v-1.3l1.845-.527V78h1.348v1.365h-1.348v2.426q0,.938.744.937a1.256,1.256,0,0,0,.6-.169Z" fill="#1e1e1e"/>
      <path d="M681.62,84h-1.752V83.14h-.023a1.957,1.957,0,0,1-1.788,1.007,1.87,1.87,0,0,1-1.374-.5,1.773,1.773,0,0,1-.5-1.321q0-1.746,2.069-2.016l1.629-.216q0-.986-1.067-.985a3.639,3.639,0,0,0-2.039.639V78.358a4.614,4.614,0,0,1,1.058-.351,5.532,5.532,0,0,1,1.222-.153,2.266,2.266,0,0,1,2.566,2.561Zm-1.74-2.438v-.4l-1.09.141q-.9.117-.9.814a.675.675,0,0,0,.219.519.845.845,0,0,0,.6.2,1.1,1.1,0,0,0,.85-.36A1.307,1.307,0,0,0,679.88,81.563Z" fill="#1e1e1e"/>
      <path d="M684.96,83.3h-.024V84h-1.851V75.118h1.851V78.9h.024a2.2,2.2,0,0,1,1.951-1.049,2.142,2.142,0,0,1,1.787.8,3.438,3.438,0,0,1,.627,2.18,3.721,3.721,0,0,1-.732,2.408,2.386,2.386,0,0,1-1.957.908A1.891,1.891,0,0,1,684.96,83.3Zm-.053-2.532v.616a1.4,1.4,0,0,0,.334.961,1.09,1.09,0,0,0,.856.38,1.135,1.135,0,0,0,.981-.489,2.365,2.365,0,0,0,.349-1.386,1.88,1.88,0,0,0-.32-1.163,1.078,1.078,0,0,0-.911-.419,1.178,1.178,0,0,0-.923.416A1.583,1.583,0,0,0,684.907,80.772Z" fill="#1e1e1e"/>
      <path d="M692.41,84h-1.852V75.118h1.852Z" fill="#1e1e1e"/>
      <path d="M699.377,81.528h-3.914q.093,1.306,1.646,1.307a3.21,3.21,0,0,0,1.74-.469V83.7a4.567,4.567,0,0,1-2.162.445,2.791,2.791,0,0,1-3.058-3.052,3.215,3.215,0,0,1,.867-2.368,2.889,2.889,0,0,1,2.133-.873,2.62,2.62,0,0,1,2.03.78,3,3,0,0,1,.718,2.115Zm-1.717-1.136q0-1.29-1.043-1.29a1,1,0,0,0-.77.37,1.673,1.673,0,0,0-.4.92Z" fill="#1e1e1e"/>
    </g>
    <g>
      <path d="M18.819,21.5H16.95V16.473q0-.814.07-1.8h-.047a8.805,8.805,0,0,1-.263,1.114L14.741,21.5H13.194l-2-5.654a11.212,11.212,0,0,1-.263-1.172h-.053q.077,1.242.076,2.18V21.5h-1.7V13.1h2.771l1.717,4.981a6.915,6.915,0,0,1,.3,1.2h.035a12.3,12.3,0,0,1,.334-1.213L16.118,13.1h2.7Z" fill="#1e1e1e"/>
      <path d="M25.919,19.028H22.005q.093,1.307,1.646,1.306a3.218,3.218,0,0,0,1.74-.468V21.2a4.579,4.579,0,0,1-2.162.445,2.792,2.792,0,0,1-3.058-3.053,3.211,3.211,0,0,1,.867-2.367,2.889,2.889,0,0,1,2.133-.873,2.623,2.623,0,0,1,2.03.779,3,3,0,0,1,.718,2.115ZM24.2,17.891q0-1.288-1.043-1.289a.994.994,0,0,0-.77.369,1.676,1.676,0,0,0-.4.92Z" fill="#1e1e1e"/>
      <path d="M32.995,21.5H31.143v-.826H31.12a2.075,2.075,0,0,1-1.857.973,2.277,2.277,0,0,1-1.811-.794,3.287,3.287,0,0,1-.686-2.218,3.578,3.578,0,0,1,.756-2.385,2.467,2.467,0,0,1,1.981-.9,1.685,1.685,0,0,1,1.617.832h.023V12.618h1.852Zm-1.816-2.918v-.451a1.421,1.421,0,0,0-.34-.972,1.2,1.2,0,0,0-1.846.1,2.25,2.25,0,0,0-.346,1.327,1.946,1.946,0,0,0,.334,1.219,1.186,1.186,0,0,0,1.843-.023A1.883,1.883,0,0,0,31.179,18.582Z" fill="#1e1e1e"/>
      <path d="M35.458,14.551a1.085,1.085,0,0,1-.768-.278.9.9,0,0,1-.3-.683.864.864,0,0,1,.3-.679,1.252,1.252,0,0,1,1.538,0,.864.864,0,0,1,.3.679.891.891,0,0,1-.3.692A1.1,1.1,0,0,1,35.458,14.551Zm.914,6.949H34.52v-6h1.852Z" fill="#1e1e1e"/>
      <path d="M42.923,21.5H41.171v-.861h-.024a1.955,1.955,0,0,1-1.787,1.008,1.87,1.87,0,0,1-1.374-.495,1.774,1.774,0,0,1-.5-1.321q0-1.747,2.069-2.016l1.628-.217q0-.984-1.066-.984a3.646,3.646,0,0,0-2.039.638V15.858a4.592,4.592,0,0,1,1.058-.352,5.585,5.585,0,0,1,1.221-.152,2.266,2.266,0,0,1,2.567,2.56Zm-1.741-2.437v-.4l-1.089.14q-.9.117-.9.815a.674.674,0,0,0,.22.518.843.843,0,0,0,.6.2,1.1,1.1,0,0,0,.849-.36A1.3,1.3,0,0,0,41.182,19.063Z" fill="#1e1e1e"/>
      <path d="M47.493,21.178V19.3a3.621,3.621,0,0,0,1.107.642,3.577,3.577,0,0,0,1.207.214,2.664,2.664,0,0,0,.624-.065,1.442,1.442,0,0,0,.446-.179.775.775,0,0,0,.266-.269.67.67,0,0,0,.088-.337.73.73,0,0,0-.14-.439,1.532,1.532,0,0,0-.384-.358,4.02,4.02,0,0,0-.577-.316c-.223-.1-.463-.205-.721-.311a3.677,3.677,0,0,1-1.468-1,2.187,2.187,0,0,1-.483-1.429,2.273,2.273,0,0,1,.264-1.128,2.233,2.233,0,0,1,.717-.777,3.235,3.235,0,0,1,1.052-.448,5.391,5.391,0,0,1,1.266-.144,7.575,7.575,0,0,1,1.163.08,4.478,4.478,0,0,1,.934.243v1.752a2.761,2.761,0,0,0-.46-.258,3.723,3.723,0,0,0-.512-.185,3.825,3.825,0,0,0-.525-.108,3.622,3.622,0,0,0-.495-.035,2.585,2.585,0,0,0-.586.061,1.5,1.5,0,0,0-.445.173.85.85,0,0,0-.281.267.624.624,0,0,0-.1.348.666.666,0,0,0,.111.378,1.286,1.286,0,0,0,.317.317,3.47,3.47,0,0,0,.5.293q.292.142.662.3a7.269,7.269,0,0,1,.905.448,3.226,3.226,0,0,1,.689.536,2.083,2.083,0,0,1,.439.683,2.731,2.731,0,0,1-.114,2.074,2.165,2.165,0,0,1-.724.773,3.139,3.139,0,0,1-1.063.425,6.146,6.146,0,0,1-1.28.129,7.136,7.136,0,0,1-1.316-.117A3.978,3.978,0,0,1,47.493,21.178Z" fill="#1e1e1e"/>
      <path d="M59.823,19.028H55.909q.095,1.307,1.647,1.306a3.218,3.218,0,0,0,1.74-.468V21.2a4.585,4.585,0,0,1-2.162.445,2.793,2.793,0,0,1-3.059-3.053,3.211,3.211,0,0,1,.867-2.367,2.889,2.889,0,0,1,2.133-.873,2.623,2.623,0,0,1,2.03.779,3,3,0,0,1,.718,2.115Zm-1.717-1.137q0-1.288-1.043-1.289a1,1,0,0,0-.77.369,1.676,1.676,0,0,0-.4.92Z" fill="#1e1e1e"/>
      <path d="M64.916,17.17a1.609,1.609,0,0,0-.779-.181,1.123,1.123,0,0,0-.944.442,1.933,1.933,0,0,0-.34,1.2V21.5H61v-6h1.851v1.114h.024A1.6,1.6,0,0,1,64.459,15.4a1.194,1.194,0,0,1,.457.07Z" fill="#1e1e1e"/>
      <path d="M71.865,15.5l-2.232,6h-2.11l-2.127-6h1.981l1.043,3.7a5.444,5.444,0,0,1,.2,1.066h.023a6.14,6.14,0,0,1,.217-1.031L69.931,15.5Z" fill="#1e1e1e"/>
      <path d="M73.628,14.551a1.083,1.083,0,0,1-.768-.278.9.9,0,0,1-.3-.683.864.864,0,0,1,.3-.679,1.252,1.252,0,0,1,1.538,0,.864.864,0,0,1,.3.679.891.891,0,0,1-.3.692A1.1,1.1,0,0,1,73.628,14.551Zm.914,6.949H72.69v-6h1.852Z" fill="#1e1e1e"/>
      <path d="M80.62,21.284a3.666,3.666,0,0,1-1.811.363,3.061,3.061,0,0,1-2.238-.838,2.9,2.9,0,0,1-.855-2.162,3.185,3.185,0,0,1,.917-2.411,3.387,3.387,0,0,1,2.452-.882,3.151,3.151,0,0,1,1.535.281v1.571a2.105,2.105,0,0,0-1.3-.434,1.706,1.706,0,0,0-1.263.466,1.738,1.738,0,0,0-.465,1.286,1.71,1.71,0,0,0,.445,1.251,1.635,1.635,0,0,0,1.224.454A2.445,2.445,0,0,0,80.62,19.8Z" fill="#1e1e1e"/>
      <path d="M87.242,19.028H83.328q.093,1.307,1.646,1.306a3.219,3.219,0,0,0,1.741-.468V21.2a4.585,4.585,0,0,1-2.162.445,2.793,2.793,0,0,1-3.059-3.053,3.211,3.211,0,0,1,.867-2.367,2.889,2.889,0,0,1,2.133-.873,2.623,2.623,0,0,1,2.03.779,3,3,0,0,1,.718,2.115Zm-1.717-1.137q0-1.288-1.043-1.289a1,1,0,0,0-.77.369,1.676,1.676,0,0,0-.4.92Z" fill="#1e1e1e"/>
      <path d="M88.1,21.342v-1.5a3.871,3.871,0,0,0,.911.41,3.012,3.012,0,0,0,.858.135,1.835,1.835,0,0,0,.776-.135.434.434,0,0,0,.285-.41.38.38,0,0,0-.129-.293,1.223,1.223,0,0,0-.331-.2,3.93,3.93,0,0,0-.443-.158q-.24-.071-.463-.158a4.547,4.547,0,0,1-.63-.29,1.838,1.838,0,0,1-.457-.361,1.423,1.423,0,0,1-.281-.474,1.91,1.91,0,0,1-.1-.639,1.647,1.647,0,0,1,.219-.867A1.8,1.8,0,0,1,88.9,15.8a2.706,2.706,0,0,1,.838-.34,4.392,4.392,0,0,1,.982-.108,5.44,5.44,0,0,1,.808.061,6.052,6.052,0,0,1,.809.179v1.43a2.954,2.954,0,0,0-.753-.308,3.2,3.2,0,0,0-.788-.1,1.708,1.708,0,0,0-.343.032,1.1,1.1,0,0,0-.284.094.52.52,0,0,0-.194.158.363.363,0,0,0-.07.22.4.4,0,0,0,.106.281.922.922,0,0,0,.275.2,2.656,2.656,0,0,0,.378.152c.139.045.276.091.413.138a5.46,5.46,0,0,1,.668.281,2.157,2.157,0,0,1,.513.358,1.406,1.406,0,0,1,.328.48,1.927,1.927,0,0,1-.117,1.568,1.858,1.858,0,0,1-.616.615,2.809,2.809,0,0,1-.884.346,4.927,4.927,0,0,1-1.041.108A5.358,5.358,0,0,1,88.1,21.342Z" fill="#1e1e1e"/>
      <path d="M38.462,35.9H36.569V27.5h1.893Z" fill="#1e1e1e"/>
      <path d="M45.928,35.9H44.082V32.566q0-1.394-1-1.394a.987.987,0,0,0-.791.369,1.407,1.407,0,0,0-.311.937V35.9H40.133v-6h1.851v.95h.024a2.12,2.12,0,0,1,1.927-1.1q1.993,0,1.993,2.472Z" fill="#1e1e1e"/>
      <path d="M47.115,35.742v-1.5a3.931,3.931,0,0,0,.911.41,3.019,3.019,0,0,0,.859.135,1.835,1.835,0,0,0,.776-.135.435.435,0,0,0,.284-.41.38.38,0,0,0-.129-.293,1.208,1.208,0,0,0-.331-.2,3.725,3.725,0,0,0-.442-.158c-.16-.047-.315-.1-.463-.158a4.547,4.547,0,0,1-.63-.29,1.82,1.82,0,0,1-.457-.361,1.406,1.406,0,0,1-.281-.474,1.884,1.884,0,0,1-.1-.639,1.638,1.638,0,0,1,.22-.867,1.792,1.792,0,0,1,.586-.595,2.7,2.7,0,0,1,.838-.34,4.376,4.376,0,0,1,.981-.108,5.454,5.454,0,0,1,.809.061,6.038,6.038,0,0,1,.808.179v1.43a2.924,2.924,0,0,0-.753-.308,3.187,3.187,0,0,0-.788-.1,1.715,1.715,0,0,0-.343.032,1.114,1.114,0,0,0-.284.094A.516.516,0,0,0,49,31.3a.361.361,0,0,0-.07.22.407.407,0,0,0,.1.281.922.922,0,0,0,.275.2,2.755,2.755,0,0,0,.378.152q.209.068.414.138a5.443,5.443,0,0,1,.667.281,2.117,2.117,0,0,1,.513.358,1.383,1.383,0,0,1,.328.48,1.914,1.914,0,0,1-.117,1.567,1.848,1.848,0,0,1-.615.616,2.79,2.79,0,0,1-.885.345,4.86,4.86,0,0,1-1.04.109A5.367,5.367,0,0,1,47.115,35.742Z" fill="#1e1e1e"/>
      <path d="M56.388,35.83a2.734,2.734,0,0,1-1.237.217q-1.956,0-1.957-2.033V31.266h-.972V29.9h.972V28.605l1.846-.527V29.9h1.348v1.366H55.04v2.425q0,.938.744.938a1.26,1.26,0,0,0,.6-.17Z" fill="#1e1e1e"/>
      <path d="M62.551,35.9H60.8v-.861h-.024a1.955,1.955,0,0,1-1.787,1.008,1.87,1.87,0,0,1-1.374-.495,1.775,1.775,0,0,1-.5-1.322q0-1.746,2.068-2.015L60.81,32q0-.984-1.066-.984a3.636,3.636,0,0,0-2.039.638V30.258a4.592,4.592,0,0,1,1.058-.352,5.585,5.585,0,0,1,1.221-.152,2.266,2.266,0,0,1,2.567,2.56ZM60.81,33.463v-.4l-1.089.14q-.9.117-.9.815a.671.671,0,0,0,.22.518.843.843,0,0,0,.6.2,1.1,1.1,0,0,0,.849-.36A1.3,1.3,0,0,0,60.81,33.463Z" fill="#1e1e1e"/>
      <path d="M69.81,35.9H67.965V32.566q0-1.394-1-1.394a.987.987,0,0,0-.791.369,1.407,1.407,0,0,0-.311.937V35.9H64.015v-6h1.852v.95h.023a2.122,2.122,0,0,1,1.928-1.1q1.992,0,1.992,2.472Z" fill="#1e1e1e"/>
      <path d="M75.832,35.684a3.666,3.666,0,0,1-1.811.363,3.059,3.059,0,0,1-2.238-.838,2.9,2.9,0,0,1-.855-2.162,3.185,3.185,0,0,1,.917-2.411,3.387,3.387,0,0,1,2.452-.882,3.154,3.154,0,0,1,1.535.281v1.57a2.11,2.11,0,0,0-1.295-.433,1.706,1.706,0,0,0-1.263.466,1.739,1.739,0,0,0-.466,1.286,1.711,1.711,0,0,0,.446,1.251,1.639,1.639,0,0,0,1.224.454,2.448,2.448,0,0,0,1.354-.434Z" fill="#1e1e1e"/>
      <path d="M82.455,33.428H78.541q.093,1.306,1.646,1.306a3.219,3.219,0,0,0,1.741-.468V35.6a4.574,4.574,0,0,1-2.163.446,2.793,2.793,0,0,1-3.058-3.053,3.211,3.211,0,0,1,.867-2.367,2.889,2.889,0,0,1,2.133-.873,2.623,2.623,0,0,1,2.03.779,3,3,0,0,1,.718,2.115Zm-1.717-1.137Q80.738,31,79.695,31a.994.994,0,0,0-.77.369,1.676,1.676,0,0,0-.4.92Z" fill="#1e1e1e"/>
      <path d="M90.963,27.31V35.9H89.117V29.4a2.241,2.241,0,0,1-.36.255,3.643,3.643,0,0,1-.443.217,3.853,3.853,0,0,1-.486.164,3.613,3.613,0,0,1-.5.1V28.57a7.619,7.619,0,0,0,1.359-.539,7.744,7.744,0,0,0,1.155-.721Z" fill="#1e1e1e"/>
    </g>
    <g>
      <path d="M18.819,70.28H16.95V65.252q0-.814.07-1.8h-.047a8.824,8.824,0,0,1-.263,1.113L14.741,70.28H13.194l-2-5.655a11.234,11.234,0,0,1-.263-1.171h-.053q.077,1.242.076,2.179V70.28h-1.7v-8.4h2.771l1.717,4.981a6.937,6.937,0,0,1,.3,1.2h.035a12.3,12.3,0,0,1,.334-1.213l1.717-4.969h2.7Z" fill="#1e1e1e"/>
      <path d="M25.919,67.807H22.005q.093,1.306,1.646,1.307a3.219,3.219,0,0,0,1.74-.469v1.336a4.567,4.567,0,0,1-2.162.445,2.791,2.791,0,0,1-3.058-3.053,3.211,3.211,0,0,1,.867-2.367,2.889,2.889,0,0,1,2.133-.873,2.62,2.62,0,0,1,2.03.78,3,3,0,0,1,.718,2.115ZM24.2,66.67q0-1.288-1.043-1.289a.994.994,0,0,0-.77.369,1.679,1.679,0,0,0-.4.92Z" fill="#1e1e1e"/>
      <path d="M32.995,70.28H31.143v-.826H31.12a2.076,2.076,0,0,1-1.857.972,2.274,2.274,0,0,1-1.811-.794,3.286,3.286,0,0,1-.686-2.218,3.574,3.574,0,0,1,.756-2.384,2.465,2.465,0,0,1,1.981-.9,1.686,1.686,0,0,1,1.617.832h.023V61.4h1.852Zm-1.816-2.918v-.451a1.423,1.423,0,0,0-.34-.973,1.2,1.2,0,0,0-1.846.1,2.246,2.246,0,0,0-.346,1.327,1.95,1.95,0,0,0,.334,1.219,1.187,1.187,0,0,0,1.843-.024A1.882,1.882,0,0,0,31.179,67.362Z" fill="#1e1e1e"/>
      <path d="M35.458,63.331a1.081,1.081,0,0,1-.768-.279.9.9,0,0,1-.3-.682.866.866,0,0,1,.3-.68,1.252,1.252,0,0,1,1.538,0,.866.866,0,0,1,.3.68.891.891,0,0,1-.3.691A1.1,1.1,0,0,1,35.458,63.331Zm.914,6.949H34.52v-6h1.852Z" fill="#1e1e1e"/>
      <path d="M42.923,70.28H41.171v-.862h-.024a1.955,1.955,0,0,1-1.787,1.008,1.87,1.87,0,0,1-1.374-.5,1.773,1.773,0,0,1-.5-1.321q0-1.746,2.069-2.016l1.628-.217q0-.984-1.066-.984a3.639,3.639,0,0,0-2.039.639V64.637a4.549,4.549,0,0,1,1.058-.351,5.531,5.531,0,0,1,1.221-.153,2.267,2.267,0,0,1,2.567,2.561Zm-1.741-2.438v-.4l-1.089.141q-.9.117-.9.814a.676.676,0,0,0,.22.519.848.848,0,0,0,.6.2,1.093,1.093,0,0,0,.849-.361A1.3,1.3,0,0,0,41.182,67.842Z" fill="#1e1e1e"/>
      <path d="M47.493,69.957V68.082a3.6,3.6,0,0,0,1.107.642,3.553,3.553,0,0,0,1.207.214,2.664,2.664,0,0,0,.624-.065,1.442,1.442,0,0,0,.446-.178.769.769,0,0,0,.266-.27.668.668,0,0,0,.088-.337.732.732,0,0,0-.14-.439,1.532,1.532,0,0,0-.384-.358,4.12,4.12,0,0,0-.577-.316c-.223-.1-.463-.2-.721-.311a3.686,3.686,0,0,1-1.468-1,2.191,2.191,0,0,1-.483-1.43,2.273,2.273,0,0,1,.264-1.128,2.23,2.23,0,0,1,.717-.776,3.215,3.215,0,0,1,1.052-.449,5.445,5.445,0,0,1,1.266-.143,7.584,7.584,0,0,1,1.163.079,4.606,4.606,0,0,1,.934.243v1.752a2.761,2.761,0,0,0-.46-.258,3.592,3.592,0,0,0-.512-.184,3.985,3.985,0,0,0-.525-.109,3.788,3.788,0,0,0-.495-.035,2.583,2.583,0,0,0-.586.062,1.5,1.5,0,0,0-.445.172.86.86,0,0,0-.281.267.63.63,0,0,0-.1.349.67.67,0,0,0,.111.378,1.3,1.3,0,0,0,.317.316,3.38,3.38,0,0,0,.5.293c.2.1.416.194.662.3a7.269,7.269,0,0,1,.905.448,3.226,3.226,0,0,1,.689.536,2.083,2.083,0,0,1,.439.683,2.731,2.731,0,0,1-.114,2.074,2.165,2.165,0,0,1-.724.773,3.119,3.119,0,0,1-1.063.425,6.146,6.146,0,0,1-1.28.129,7.136,7.136,0,0,1-1.316-.117A3.944,3.944,0,0,1,47.493,69.957Z" fill="#1e1e1e"/>
      <path d="M59.823,67.807H55.909q.095,1.306,1.647,1.307a3.219,3.219,0,0,0,1.74-.469v1.336a4.573,4.573,0,0,1-2.162.445,2.792,2.792,0,0,1-3.059-3.053,3.211,3.211,0,0,1,.867-2.367,2.889,2.889,0,0,1,2.133-.873,2.62,2.62,0,0,1,2.03.78,3,3,0,0,1,.718,2.115ZM58.106,66.67q0-1.288-1.043-1.289a1,1,0,0,0-.77.369,1.679,1.679,0,0,0-.4.92Z" fill="#1e1e1e"/>
      <path d="M64.916,65.95a1.609,1.609,0,0,0-.779-.182,1.123,1.123,0,0,0-.944.442,1.935,1.935,0,0,0-.34,1.2V70.28H61v-6h1.851v1.113h.024a1.6,1.6,0,0,1,1.582-1.219,1.191,1.191,0,0,1,.457.071Z" fill="#1e1e1e"/>
      <path d="M71.865,64.28l-2.232,6h-2.11l-2.127-6h1.981l1.043,3.7a5.444,5.444,0,0,1,.2,1.066h.023a6.14,6.14,0,0,1,.217-1.031l1.066-3.732Z" fill="#1e1e1e"/>
      <path d="M73.628,63.331a1.08,1.08,0,0,1-.768-.279.9.9,0,0,1-.3-.682.866.866,0,0,1,.3-.68,1.252,1.252,0,0,1,1.538,0,.866.866,0,0,1,.3.68.891.891,0,0,1-.3.691A1.1,1.1,0,0,1,73.628,63.331Zm.914,6.949H72.69v-6h1.852Z" fill="#1e1e1e"/>
      <path d="M80.62,70.063a3.666,3.666,0,0,1-1.811.363,3.061,3.061,0,0,1-2.238-.838,2.893,2.893,0,0,1-.855-2.162,3.186,3.186,0,0,1,.917-2.411,3.387,3.387,0,0,1,2.452-.882,3.151,3.151,0,0,1,1.535.281v1.571a2.111,2.111,0,0,0-1.3-.434,1.706,1.706,0,0,0-1.263.466A1.74,1.74,0,0,0,77.6,67.3a1.71,1.71,0,0,0,.445,1.251,1.635,1.635,0,0,0,1.224.454,2.444,2.444,0,0,0,1.354-.433Z" fill="#1e1e1e"/>
      <path d="M87.242,67.807H83.328q.093,1.306,1.646,1.307a3.22,3.22,0,0,0,1.741-.469v1.336a4.573,4.573,0,0,1-2.162.445,2.792,2.792,0,0,1-3.059-3.053,3.211,3.211,0,0,1,.867-2.367,2.889,2.889,0,0,1,2.133-.873,2.62,2.62,0,0,1,2.03.78,3,3,0,0,1,.718,2.115ZM85.525,66.67q0-1.288-1.043-1.289a1,1,0,0,0-.77.369,1.679,1.679,0,0,0-.4.92Z" fill="#1e1e1e"/>
      <path d="M88.1,70.122v-1.5a3.954,3.954,0,0,0,.911.41,3.01,3.01,0,0,0,.858.134,1.837,1.837,0,0,0,.776-.134.436.436,0,0,0,.285-.41.378.378,0,0,0-.129-.293,1.2,1.2,0,0,0-.331-.206,3.93,3.93,0,0,0-.443-.158c-.16-.047-.314-.1-.463-.158a4.434,4.434,0,0,1-.63-.29,1.835,1.835,0,0,1-.457-.36,1.427,1.427,0,0,1-.281-.475,1.91,1.91,0,0,1-.1-.639,1.647,1.647,0,0,1,.219-.867,1.81,1.81,0,0,1,.586-.595,2.681,2.681,0,0,1,.838-.339,4.334,4.334,0,0,1,.982-.109,5.443,5.443,0,0,1,.808.062,6.049,6.049,0,0,1,.809.178V65.8a2.915,2.915,0,0,0-.753-.307,3.154,3.154,0,0,0-.788-.1,1.784,1.784,0,0,0-.343.032,1.141,1.141,0,0,0-.284.094.529.529,0,0,0-.194.158.365.365,0,0,0-.07.22.4.4,0,0,0,.106.281.9.9,0,0,0,.275.2,2.655,2.655,0,0,0,.378.153c.139.045.276.09.413.137a5.306,5.306,0,0,1,.668.282,2.126,2.126,0,0,1,.513.357,1.416,1.416,0,0,1,.328.48,1.927,1.927,0,0,1-.117,1.568,1.858,1.858,0,0,1-.616.615,2.786,2.786,0,0,1-.884.346,4.927,4.927,0,0,1-1.041.108A5.357,5.357,0,0,1,88.1,70.122Z" fill="#1e1e1e"/>
      <path d="M38.462,84.68H36.569v-8.4h1.893Z" fill="#1e1e1e"/>
      <path d="M45.928,84.68H44.082V81.346q0-1.4-1-1.4a.987.987,0,0,0-.791.369,1.408,1.408,0,0,0-.311.938V84.68H40.133v-6h1.851v.949h.024a2.12,2.12,0,0,1,1.927-1.1q1.993,0,1.993,2.473Z" fill="#1e1e1e"/>
      <path d="M47.115,84.521v-1.5a3.936,3.936,0,0,0,.911.411,3.052,3.052,0,0,0,.859.134,1.853,1.853,0,0,0,.776-.134.437.437,0,0,0,.284-.411.381.381,0,0,0-.129-.293,1.208,1.208,0,0,0-.331-.2,3.912,3.912,0,0,0-.442-.158c-.16-.047-.315-.1-.463-.158a4.547,4.547,0,0,1-.63-.29,1.839,1.839,0,0,1-.457-.36,1.411,1.411,0,0,1-.281-.475,1.884,1.884,0,0,1-.1-.639,1.638,1.638,0,0,1,.22-.867,1.8,1.8,0,0,1,.586-.595,2.671,2.671,0,0,1,.838-.339,4.319,4.319,0,0,1,.981-.109,5.456,5.456,0,0,1,.809.062,6.035,6.035,0,0,1,.808.178V80.2A2.924,2.924,0,0,0,50.6,79.9a3.187,3.187,0,0,0-.788-.1,1.792,1.792,0,0,0-.343.032,1.155,1.155,0,0,0-.284.094.526.526,0,0,0-.193.158.365.365,0,0,0-.07.22.407.407,0,0,0,.1.281.9.9,0,0,0,.275.2,2.755,2.755,0,0,0,.378.153c.139.044.277.09.414.137a5.443,5.443,0,0,1,.667.281,2.117,2.117,0,0,1,.513.358,1.4,1.4,0,0,1,.328.48,1.917,1.917,0,0,1-.117,1.568,1.845,1.845,0,0,1-.615.615,2.815,2.815,0,0,1-.885.346,4.925,4.925,0,0,1-1.04.108A5.343,5.343,0,0,1,47.115,84.521Z" fill="#1e1e1e"/>
      <path d="M56.388,84.609a2.734,2.734,0,0,1-1.237.217q-1.956,0-1.957-2.033V80.045h-.972V78.68h.972v-1.3l1.846-.528V78.68h1.348v1.365H55.04v2.426q0,.938.744.937a1.26,1.26,0,0,0,.6-.17Z" fill="#1e1e1e"/>
      <path d="M62.551,84.68H60.8v-.862h-.024a1.955,1.955,0,0,1-1.787,1.008,1.87,1.87,0,0,1-1.374-.495,1.774,1.774,0,0,1-.5-1.321q0-1.746,2.068-2.016l1.629-.217q0-.984-1.066-.984a3.637,3.637,0,0,0-2.039.639V79.037a4.592,4.592,0,0,1,1.058-.352,5.585,5.585,0,0,1,1.221-.152,2.267,2.267,0,0,1,2.567,2.561ZM60.81,82.242v-.4l-1.089.14q-.9.119-.9.815a.669.669,0,0,0,.22.518.844.844,0,0,0,.6.2,1.1,1.1,0,0,0,.849-.361A1.3,1.3,0,0,0,60.81,82.242Z" fill="#1e1e1e"/>
      <path d="M69.81,84.68H67.965V81.346q0-1.4-1-1.4a.987.987,0,0,0-.791.369,1.408,1.408,0,0,0-.311.938V84.68H64.015v-6h1.852v.949h.023a2.122,2.122,0,0,1,1.928-1.1q1.992,0,1.992,2.473Z" fill="#1e1e1e"/>
      <path d="M75.832,84.463a3.666,3.666,0,0,1-1.811.363,3.059,3.059,0,0,1-2.238-.838,2.893,2.893,0,0,1-.855-2.162,3.186,3.186,0,0,1,.917-2.411,3.387,3.387,0,0,1,2.452-.882,3.154,3.154,0,0,1,1.535.281v1.571a2.111,2.111,0,0,0-1.295-.434,1.706,1.706,0,0,0-1.263.466,1.739,1.739,0,0,0-.466,1.286,1.711,1.711,0,0,0,.446,1.251,1.635,1.635,0,0,0,1.224.454,2.446,2.446,0,0,0,1.354-.433Z" fill="#1e1e1e"/>
      <path d="M82.455,82.207H78.541q.093,1.307,1.646,1.307a3.22,3.22,0,0,0,1.741-.469v1.336a4.574,4.574,0,0,1-2.163.445,2.793,2.793,0,0,1-3.058-3.053,3.211,3.211,0,0,1,.867-2.367,2.889,2.889,0,0,1,2.133-.873,2.623,2.623,0,0,1,2.03.779,3,3,0,0,1,.718,2.116ZM80.738,81.07q0-1.288-1.043-1.289a.994.994,0,0,0-.77.369,1.676,1.676,0,0,0-.4.92Z" fill="#1e1e1e"/>
      <path d="M88.6,83.144h3.563V84.68h-5.59v-.633a2.932,2.932,0,0,1,.217-1.157,3.8,3.8,0,0,1,.545-.92,4.708,4.708,0,0,1,.718-.721q.388-.313.741-.565.369-.264.647-.5a3.735,3.735,0,0,0,.469-.478,1.8,1.8,0,0,0,.284-.48,1.419,1.419,0,0,0,.094-.519,1.041,1.041,0,0,0-.305-.814,1.35,1.35,0,0,0-.931-.276,3.129,3.129,0,0,0-2.075.862V76.846a4.452,4.452,0,0,1,2.473-.709A3.635,3.635,0,0,1,90.6,76.3a2.421,2.421,0,0,1,.858.477,2.039,2.039,0,0,1,.536.753,2.542,2.542,0,0,1,.185.987A2.79,2.79,0,0,1,92,79.553a3.155,3.155,0,0,1-.475.82,4.284,4.284,0,0,1-.682.677q-.387.307-.8.594c-.188.133-.368.265-.542.4a5.157,5.157,0,0,0-.46.387,2.087,2.087,0,0,0-.316.372A.635.635,0,0,0,88.6,83.144Z" fill="#1e1e1e"/>
    </g>
  </g>
</svg>
